<svg id="svg" version="1.1" width="400" height="154.40289505428225" viewBox="0 0 400 154.40289505428225" xmlns="http://www.w3.org/2000/svg" xmlns:xlink="http://www.w3.org/1999/xlink" ><g id="svgg"><path id="path0" d="M304.053 7.017 C 302.759 7.391,301.723 9.585,302.156 11.031 C 302.578 12.438,303.676 13.247,305.622 13.585 C 307.208 13.860,306.486 12.610,315.672 31.000 C 319.079 37.821,319.139 37.605,314.100 36.595 C 311.378 36.049,307.356 35.476,304.661 35.250 C 298.849 34.763,293.561 37.426,292.414 41.417 C 292.161 42.296,291.639 55.157,291.677 59.582 C 291.698 62.072,291.599 62.406,290.730 62.769 C 290.033 63.060,286.916 63.746,284.449 64.151 C 282.172 64.525,282.112 64.582,282.096 66.368 C 282.081 68.152,282.195 68.487,283.009 69.045 C 283.938 69.684,284.266 70.556,284.671 73.469 C 285.999 83.015,286.551 85.230,288.492 88.803 C 289.736 91.092,292.260 94.017,293.593 94.715 C 295.170 95.540,295.248 95.801,296.081 103.083 C 296.312 105.100,296.578 107.275,296.672 107.917 C 297.041 110.422,297.492 113.882,297.823 116.750 C 298.405 121.787,298.434 121.940,299.080 123.300 C 301.513 128.433,308.278 129.398,321.000 126.430 C 321.962 126.206,323.912 125.757,325.333 125.432 C 326.754 125.107,328.292 124.717,328.750 124.564 C 329.208 124.412,330.033 124.182,330.583 124.052 C 332.051 123.708,338.886 121.762,341.583 120.921 C 342.867 120.520,346.092 119.514,348.750 118.683 C 356.907 116.136,359.517 115.325,361.219 114.810 C 363.294 114.181,366.794 112.533,367.957 111.636 C 370.069 110.006,370.387 108.625,370.586 100.194 C 370.706 95.126,370.637 95.355,372.286 94.516 C 373.508 93.894,373.945 93.600,376.199 91.890 C 380.614 88.538,382.999 82.852,384.159 72.917 C 384.800 67.426,384.879 67.157,386.239 65.842 L 386.833 65.268 386.833 63.754 C 386.833 61.698,386.744 61.588,384.878 61.344 C 384.074 61.240,382.217 60.939,380.750 60.677 C 379.283 60.415,377.521 60.111,376.833 60.001 C 371.706 59.182,371.749 59.206,371.588 57.042 C 371.435 54.972,371.401 54.853,370.560 53.440 C 369.459 51.590,367.538 50.010,364.250 48.251 C 361.718 46.896,360.388 46.494,353.750 45.082 C 352.192 44.751,349.304 44.113,347.333 43.664 C 345.363 43.216,343.000 42.696,342.083 42.510 C 332.134 40.485,332.404 40.745,335.460 36.129 C 338.125 32.106,339.594 29.830,340.537 28.266 C 341.580 26.538,341.643 26.500,343.450 26.546 C 346.793 26.630,348.700 23.210,346.558 20.974 C 343.951 18.252,339.828 20.570,340.743 24.243 C 341.135 25.817,341.040 26.128,339.787 27.380 C 339.217 27.950,337.400 29.835,335.750 31.569 C 334.100 33.302,331.775 35.721,330.583 36.944 L 328.417 39.167 327.603 39.167 C 326.426 39.167,325.870 38.738,324.560 36.824 C 323.931 35.904,322.924 34.462,322.321 33.618 C 321.719 32.774,320.373 30.846,319.331 29.333 C 316.406 25.088,315.588 23.903,314.153 21.833 C 313.422 20.779,312.381 19.242,311.840 18.417 C 311.298 17.592,310.412 16.317,309.870 15.583 C 309.328 14.850,308.706 13.936,308.486 13.552 L 308.088 12.855 308.496 11.679 C 309.584 8.540,307.251 6.091,304.053 7.017 M52.167 42.995 C 47.298 43.586,47.500 43.164,47.500 52.753 C 47.500 62.194,47.353 61.918,52.083 61.336 C 52.817 61.246,54.225 61.097,55.213 61.005 C 57.728 60.771,58.356 60.379,58.592 58.900 C 58.798 57.609,57.798 56.636,56.541 56.905 C 53.835 57.484,52.752 57.105,52.774 55.588 C 52.793 54.243,53.016 54.072,55.163 53.750 C 57.570 53.389,58.352 52.707,58.105 51.184 C 57.911 49.988,57.443 49.764,55.241 49.810 C 52.893 49.859,52.833 49.824,52.833 48.417 C 52.833 47.062,52.914 47.005,55.340 46.659 C 58.069 46.270,58.839 45.626,58.611 43.924 C 58.428 42.557,57.214 42.382,52.167 42.995 M316.103 42.919 C 316.917 43.058,318.446 43.362,319.500 43.594 C 320.554 43.827,322.129 44.168,323.000 44.354 C 323.871 44.539,325.521 44.907,326.667 45.172 C 327.813 45.438,329.762 45.841,331.000 46.069 C 333.480 46.526,337.526 47.361,339.083 47.738 C 339.633 47.871,340.833 48.096,341.750 48.237 C 342.667 48.379,344.129 48.605,345.000 48.739 C 345.871 48.873,348.008 49.206,349.750 49.480 C 354.425 50.214,355.672 50.333,358.686 50.336 C 364.555 50.342,368.037 52.613,368.443 56.698 C 368.640 58.680,368.401 58.798,363.761 59.007 C 356.168 59.349,351.000 60.440,345.705 62.820 C 342.376 64.317,341.940 64.416,339.871 64.156 C 337.261 63.828,332.647 63.885,330.583 64.271 C 327.872 64.779,326.933 64.707,324.500 63.809 C 317.715 61.306,311.157 60.275,304.500 60.667 C 302.938 60.759,302.072 60.643,301.726 60.298 C 301.315 59.887,301.491 53.541,302.015 49.833 C 302.788 44.375,308.424 41.609,316.103 42.919 M42.868 44.497 C 41.521 44.817,41.228 45.502,41.128 48.572 C 41.025 51.722,40.944 51.833,38.761 51.833 C 36.901 51.833,36.937 51.891,36.833 48.741 C 36.726 45.461,36.258 44.869,34.132 45.325 C 31.857 45.813,31.835 45.901,31.835 54.583 C 31.835 63.502,31.861 63.600,34.203 63.469 C 36.307 63.351,36.832 62.575,36.834 59.583 C 36.836 56.368,36.987 56.096,38.878 55.902 C 41.011 55.684,41.167 55.912,41.167 59.262 C 41.167 61.399,41.181 61.492,41.598 61.987 C 42.414 62.957,44.949 62.591,45.766 61.385 C 46.164 60.797,46.356 46.193,45.978 45.280 C 45.639 44.462,44.368 44.142,42.868 44.497 M26.167 46.009 C 23.862 46.288,20.532 46.655,19.417 46.753 C 16.442 47.012,15.687 47.447,15.539 48.985 C 15.402 50.408,15.997 50.833,18.122 50.833 C 20.632 50.833,20.402 50.186,20.500 57.500 L 20.583 63.695 21.151 64.201 C 22.114 65.061,24.379 64.632,25.091 63.456 C 25.394 62.953,25.422 62.492,25.500 56.695 C 25.596 49.500,25.396 50.168,27.556 49.847 C 29.634 49.538,30.500 48.799,30.500 47.337 C 30.500 45.979,29.340 45.623,26.167 46.009 M260.000 47.601 C 250.734 47.955,246.450 49.457,241.146 54.212 C 231.168 63.156,230.715 78.609,240.244 84.980 L 241.959 86.127 244.938 86.826 C 246.576 87.210,248.629 87.738,249.500 87.999 C 250.371 88.260,251.946 88.676,253.000 88.924 C 260.823 90.761,263.567 92.705,263.579 96.417 C 263.591 100.271,261.681 101.416,255.250 101.409 L 251.250 101.404 247.833 100.555 C 245.954 100.088,244.117 99.653,243.750 99.590 C 243.383 99.526,242.296 99.257,241.333 98.991 C 237.727 97.996,236.432 97.803,235.232 98.082 C 231.493 98.949,229.513 101.753,229.503 106.197 C 229.494 110.287,231.302 113.215,234.973 115.052 C 240.313 117.724,255.492 118.761,261.980 116.897 C 274.667 113.252,281.670 102.665,279.935 89.750 C 278.847 81.652,274.877 78.051,264.333 75.598 C 255.268 73.489,251.824 72.024,250.613 69.761 C 249.722 68.097,250.324 64.985,251.746 63.913 C 253.666 62.464,259.385 62.465,264.500 63.915 C 272.836 66.278,275.914 65.283,278.417 59.417 C 280.756 53.936,278.772 50.906,271.333 48.594 C 269.032 47.879,264.078 47.445,260.000 47.601 M217.045 52.833 C 214.857 53.294,211.960 55.531,209.215 58.880 C 208.684 59.527,207.688 60.708,207.000 61.504 C 204.777 64.078,203.239 65.912,199.503 70.440 C 198.909 71.161,197.934 72.321,197.336 73.018 C 196.739 73.716,195.725 74.912,195.083 75.676 C 194.442 76.440,193.612 77.407,193.240 77.824 C 192.868 78.242,192.272 78.958,191.917 79.417 C 188.333 84.037,188.334 84.039,188.330 72.671 C 188.326 61.463,188.274 61.068,186.553 59.074 C 185.041 57.322,182.954 56.719,178.964 56.878 C 172.341 57.142,168.835 60.065,168.484 65.615 C 168.410 66.789,168.345 79.050,168.341 92.860 C 168.332 121.584,168.254 120.006,169.809 122.311 C 172.007 125.567,178.762 125.933,184.302 123.095 C 185.661 122.399,187.101 120.634,187.847 118.750 L 188.243 117.750 188.293 108.000 C 188.343 98.202,188.395 97.333,188.939 97.333 C 189.412 97.333,191.176 99.004,200.109 107.911 C 210.757 118.528,210.785 118.554,212.276 119.545 C 215.815 121.896,219.910 121.429,223.500 118.265 C 228.039 114.265,227.982 109.615,223.339 105.000 C 217.501 99.198,207.401 88.644,207.259 88.196 C 207.048 87.531,207.466 86.893,210.171 83.750 C 210.723 83.108,211.754 81.870,212.462 80.998 C 213.171 80.127,214.613 78.402,215.667 77.165 C 216.721 75.928,217.843 74.579,218.160 74.167 C 218.476 73.754,219.126 72.967,219.603 72.417 C 223.999 67.351,225.422 65.412,226.314 63.272 C 226.894 61.882,226.920 59.394,226.368 58.000 C 225.156 54.934,220.175 52.174,217.045 52.833 M155.417 59.013 C 154.500 59.087,152.925 59.226,151.917 59.322 C 150.908 59.418,148.846 59.610,147.333 59.749 C 138.504 60.557,130.480 61.471,129.104 61.826 C 125.697 62.703,123.277 65.208,122.598 68.559 C 122.273 70.169,122.190 120.910,122.509 123.280 C 123.169 128.177,126.378 129.904,133.526 129.206 C 141.452 128.432,150.560 127.570,156.167 127.063 C 161.740 126.559,164.379 123.866,164.394 118.667 C 164.403 115.453,163.694 113.743,161.822 112.465 C 160.154 111.327,159.068 111.289,150.417 112.061 C 144.664 112.575,143.134 112.610,142.762 112.238 C 142.340 111.817,142.372 102.695,142.797 102.171 C 143.125 101.765,144.510 101.563,149.667 101.168 C 155.602 100.714,156.685 100.502,158.981 99.343 C 163.491 97.066,163.695 87.977,159.283 85.848 C 157.566 85.019,156.304 85.028,146.438 85.934 C 143.465 86.208,142.939 86.175,142.686 85.702 C 142.433 85.229,142.385 76.659,142.633 76.214 C 142.943 75.658,143.555 75.560,150.250 74.997 C 158.465 74.307,160.189 73.908,161.944 72.291 C 164.894 69.571,165.397 63.600,162.908 60.845 C 161.326 59.095,159.613 58.676,155.417 59.013 M370.750 60.324 C 379.531 61.349,382.246 63.926,382.607 71.583 C 382.740 74.394,382.236 78.135,381.407 80.500 C 381.102 81.371,380.727 82.526,380.573 83.068 C 379.128 88.169,373.795 93.422,368.833 94.632 C 361.440 96.436,355.342 95.268,350.239 91.070 C 348.710 89.813,348.038 89.108,346.226 86.860 C 342.204 81.869,340.645 72.144,343.094 67.313 C 345.645 62.279,358.869 58.937,370.750 60.324 M311.500 61.834 C 312.096 61.924,313.483 62.114,314.583 62.257 C 318.307 62.739,322.326 64.169,324.377 65.743 C 328.478 68.889,328.596 76.799,324.663 84.833 C 319.484 95.411,307.201 100.055,297.082 95.261 C 292.979 93.317,290.542 90.546,288.779 85.822 C 285.435 76.861,286.229 68.181,290.671 65.122 C 292.553 63.827,295.792 62.722,298.583 62.423 C 299.133 62.364,300.071 62.239,300.667 62.144 C 304.242 61.573,308.891 61.441,311.500 61.834 M110.083 63.346 C 109.350 63.428,107.888 63.568,106.833 63.657 C 98.620 64.351,95.057 64.686,90.750 65.169 C 89.192 65.344,87.354 65.534,86.667 65.591 C 81.059 66.058,77.689 68.394,76.696 72.504 C 76.335 73.997,76.369 127.545,76.732 128.748 C 78.034 133.071,81.178 134.350,88.500 133.537 C 91.308 133.225,96.862 132.705,101.333 132.335 C 112.628 131.401,114.576 130.977,116.419 129.054 C 119.083 126.274,119.296 120.309,116.828 117.610 C 115.073 115.689,114.002 115.584,104.706 116.425 C 97.090 117.114,96.994 117.111,96.656 116.221 C 96.305 115.298,96.531 106.893,96.917 106.519 C 97.205 106.240,97.816 106.148,101.417 105.841 C 108.933 105.199,111.235 104.785,113.176 103.729 C 117.493 101.379,117.675 92.176,113.443 90.241 C 111.541 89.372,110.785 89.366,102.500 90.164 C 98.388 90.560,97.338 90.578,96.907 90.264 C 96.436 89.919,96.402 80.860,96.871 80.391 C 97.194 80.068,97.686 80.001,103.417 79.506 C 112.982 78.679,115.039 78.171,116.500 76.273 C 118.176 74.096,118.592 72.714,118.453 69.775 C 118.216 64.753,115.586 62.732,110.083 63.346 M336.277 67.155 C 338.848 67.527,339.799 69.251,338.896 71.902 C 338.089 74.270,342.064 84.224,345.444 88.302 C 350.692 94.633,355.751 96.893,364.010 96.597 C 367.881 96.458,367.689 96.334,367.759 99.037 C 367.871 103.329,366.848 107.247,365.164 108.982 C 364.135 110.043,363.176 110.372,357.167 111.726 C 353.121 112.637,347.019 114.018,345.583 114.347 C 342.665 115.015,323.235 119.855,322.217 120.167 C 315.003 122.378,309.759 120.615,308.012 115.392 C 307.468 113.767,307.372 113.243,306.749 108.500 C 306.514 106.712,306.204 104.388,306.059 103.333 C 305.394 98.500,305.415 98.450,308.122 98.259 C 313.337 97.891,321.008 93.561,323.264 89.711 C 323.507 89.297,323.948 88.687,324.245 88.354 C 327.050 85.217,331.088 74.514,330.416 72.000 C 329.427 68.305,331.632 66.483,336.277 67.155 M48.833 67.267 C 38.868 67.784,33.504 69.112,27.664 72.507 C 25.418 73.812,25.216 73.952,22.833 75.830 C 12.775 83.762,7.495 95.837,8.333 108.997 C 8.943 118.569,12.249 125.587,18.805 131.224 C 27.332 138.555,36.690 140.326,51.882 137.485 C 62.677 135.467,69.828 130.937,72.013 124.737 C 72.518 123.303,72.596 120.795,72.499 109.250 L 72.414 99.250 71.952 98.092 C 70.395 94.190,69.061 93.762,60.833 94.522 C 57.946 94.789,54.608 95.082,53.417 95.173 C 44.102 95.883,40.833 98.371,40.833 104.754 C 40.833 110.549,43.706 112.757,50.604 112.265 C 53.197 112.080,53.214 112.093,53.141 114.065 C 52.971 118.604,49.576 120.896,43.000 120.910 C 33.181 120.932,27.153 114.200,27.560 103.667 C 28.023 91.660,34.852 84.830,46.390 84.835 C 51.537 84.837,53.426 85.144,58.167 86.748 C 64.147 88.771,66.053 88.443,68.988 84.888 C 73.479 79.449,73.202 75.528,68.078 72.010 C 62.951 68.490,56.396 66.875,48.833 67.267 " stroke="none" fill="#9e56c7" fill-rule="evenodd"></path><path id="path1" d="M0.000 77.167 L 0.000 154.333 200.000 154.333 L 400.000 154.333 400.000 77.167 L 400.000 0.000 200.000 0.000 L 0.000 0.000 0.000 77.167 M307.593 5.896 C 308.581 6.356,309.767 7.729,309.931 8.603 C 310.032 9.142,309.978 10.179,309.749 12.083 L 309.649 12.917 311.701 16.017 C 312.829 17.722,314.019 19.447,314.345 19.850 C 314.671 20.253,315.463 21.371,316.105 22.333 C 316.747 23.296,317.642 24.631,318.094 25.301 C 318.547 25.971,319.112 26.837,319.350 27.226 C 319.589 27.614,320.061 28.304,320.399 28.758 C 320.738 29.212,321.239 29.883,321.512 30.250 C 321.785 30.617,322.250 31.273,322.546 31.708 C 324.745 34.947,326.809 37.637,327.188 37.757 C 327.801 37.951,330.365 35.637,333.228 32.306 C 333.674 31.787,334.363 31.129,334.759 30.845 C 335.167 30.552,335.705 29.932,336.002 29.413 C 336.290 28.910,336.687 28.412,336.883 28.307 C 338.510 27.436,339.730 25.645,339.482 24.489 C 338.580 20.283,342.361 17.143,346.057 19.029 C 350.744 21.420,348.871 28.378,343.657 27.948 C 342.291 27.836,342.445 27.720,340.941 30.000 C 340.245 31.054,339.458 32.217,339.191 32.583 C 338.924 32.950,338.536 33.587,338.329 34.000 C 338.122 34.412,337.408 35.552,336.742 36.532 C 334.708 39.524,334.839 39.921,338.020 40.399 C 339.934 40.687,343.855 41.582,345.809 42.177 C 346.392 42.355,347.142 42.500,347.476 42.501 C 347.810 42.501,348.758 42.690,349.583 42.921 C 350.408 43.151,352.508 43.603,354.250 43.925 C 360.215 45.026,363.073 45.851,364.333 46.834 C 364.654 47.084,365.254 47.460,365.667 47.668 C 366.079 47.876,366.829 48.318,367.333 48.648 C 367.837 48.979,368.618 49.435,369.067 49.662 C 369.673 49.967,370.036 50.312,370.468 50.995 C 370.789 51.502,371.298 52.193,371.598 52.530 C 371.899 52.867,372.225 53.430,372.324 53.780 C 372.482 54.339,372.577 54.888,372.935 57.293 C 373.051 58.073,373.539 58.307,375.427 58.492 C 377.139 58.660,378.499 58.897,381.091 59.480 C 381.920 59.666,383.542 59.895,384.695 59.989 C 387.960 60.254,388.167 60.414,388.166 62.662 C 388.164 65.048,387.951 65.918,387.160 66.777 C 386.074 67.954,385.702 69.513,385.079 75.485 C 384.682 79.287,383.189 84.605,381.968 86.562 C 381.618 87.124,381.115 87.996,380.850 88.500 C 380.399 89.358,377.948 92.333,377.692 92.333 C 377.628 92.333,377.123 92.771,376.570 93.305 C 375.919 93.934,375.123 94.486,374.311 94.872 C 371.986 95.975,371.900 96.239,371.670 103.000 C 371.403 110.871,371.118 111.494,366.682 113.911 C 365.545 114.531,364.158 115.174,363.599 115.341 C 360.923 116.137,358.089 117.028,357.941 117.120 C 357.850 117.176,356.945 117.466,355.929 117.763 C 354.914 118.060,353.146 118.640,352.000 119.052 C 347.830 120.549,346.302 121.037,344.333 121.500 C 343.646 121.662,342.641 121.958,342.100 122.157 C 341.559 122.357,340.696 122.595,340.183 122.685 C 339.670 122.776,338.200 123.187,336.917 123.598 C 335.633 124.010,333.758 124.524,332.750 124.742 C 331.742 124.960,329.379 125.595,327.500 126.154 C 325.621 126.713,323.347 127.281,322.447 127.416 C 321.547 127.551,320.459 127.820,320.030 128.014 C 319.187 128.396,318.912 128.440,313.417 129.074 C 308.729 129.615,304.753 129.486,303.333 128.746 C 298.482 126.217,297.520 124.661,296.759 118.117 C 296.522 116.082,296.141 113.029,295.911 111.333 C 295.291 106.752,295.036 104.811,294.748 102.500 C 294.071 97.047,293.886 96.426,292.751 95.758 C 291.572 95.066,288.802 91.926,287.856 90.211 C 287.514 89.591,287.111 88.896,286.961 88.667 C 286.007 87.210,284.683 82.376,284.177 78.503 C 283.982 77.007,283.778 75.711,283.723 75.623 C 283.668 75.535,283.602 74.731,283.575 73.837 C 283.518 71.916,283.009 70.674,281.852 69.638 C 280.764 68.663,280.404 66.956,280.893 65.083 C 281.249 63.720,281.623 63.430,283.357 63.175 C 284.123 63.063,285.650 62.721,286.750 62.415 C 287.850 62.109,289.021 61.814,289.352 61.759 C 290.509 61.569,290.461 61.888,290.573 53.667 C 290.704 44.032,290.935 41.208,291.717 39.719 C 292.464 38.297,293.920 36.739,295.117 36.082 C 295.740 35.741,296.524 35.277,296.859 35.052 C 298.187 34.161,301.062 33.876,305.867 34.158 C 308.767 34.328,310.089 34.501,313.633 35.171 C 316.116 35.641,316.416 35.123,315.083 32.667 C 314.760 32.071,314.125 30.818,313.672 29.883 C 313.218 28.949,312.619 27.869,312.341 27.483 C 312.062 27.098,311.833 26.646,311.833 26.477 C 311.833 26.309,311.447 25.439,310.975 24.544 C 310.503 23.649,309.274 21.227,308.245 19.162 C 306.136 14.931,306.223 15.041,304.749 14.732 C 301.811 14.116,300.832 12.899,300.834 9.867 C 300.837 7.151,301.730 6.146,304.499 5.743 C 306.506 5.451,306.653 5.458,307.593 5.896 M58.424 42.021 C 59.415 42.487,59.667 42.880,59.667 43.963 C 59.667 46.158,59.206 46.803,57.151 47.486 C 55.513 48.030,55.318 48.667,56.789 48.667 C 59.963 48.667,59.967 53.636,56.794 54.565 C 54.806 55.147,54.777 55.833,56.740 55.834 C 59.353 55.834,60.597 58.237,59.125 60.439 C 58.381 61.553,57.774 61.808,55.394 62.009 C 54.307 62.101,52.755 62.291,51.947 62.432 C 50.363 62.707,49.126 62.646,47.795 62.225 C 46.944 61.956,46.979 61.946,45.750 62.770 C 42.439 64.991,39.809 63.292,40.102 59.122 C 40.209 57.601,40.200 57.542,39.819 57.275 C 38.729 56.512,37.740 57.337,37.886 58.889 C 38.229 62.533,36.912 64.474,34.083 64.492 C 31.030 64.511,30.784 63.893,30.764 56.131 C 30.747 49.934,30.913 50.352,28.662 50.843 C 26.304 51.358,26.500 50.770,26.499 57.317 C 26.499 60.637,26.428 63.168,26.327 63.533 C 25.715 65.738,21.083 66.719,19.888 64.897 C 19.584 64.433,19.523 63.136,19.351 53.574 C 19.325 52.077,19.163 51.935,17.352 51.826 C 15.238 51.699,14.500 50.957,14.500 48.964 C 14.501 46.595,15.852 45.856,20.833 45.500 C 22.254 45.399,24.054 45.240,24.833 45.148 C 27.867 44.787,29.092 44.773,30.288 45.083 L 31.427 45.379 32.506 44.858 C 34.490 43.901,36.041 44.002,37.202 45.163 C 37.892 45.853,37.920 45.985,37.842 48.212 C 37.771 50.213,38.251 50.965,39.282 50.469 C 39.851 50.195,39.963 49.791,39.983 47.936 C 40.023 44.405,41.956 42.610,44.868 43.402 C 46.760 43.917,46.853 43.914,47.585 43.325 C 49.076 42.123,50.418 41.880,56.543 41.700 C 57.396 41.675,57.854 41.753,58.424 42.021 M310.073 44.077 C 309.059 44.288,307.934 44.610,307.573 44.793 C 307.212 44.975,306.729 45.180,306.500 45.248 C 305.761 45.468,305.076 46.113,304.522 47.109 C 304.225 47.645,303.838 48.311,303.662 48.590 C 303.341 49.101,303.310 49.333,302.819 55.011 C 302.617 57.334,302.740 58.185,303.381 58.916 L 303.750 59.337 307.667 59.419 C 312.573 59.522,318.403 60.284,321.100 61.174 C 323.998 62.130,324.888 62.451,326.200 63.013 L 327.484 63.561 329.534 63.179 C 332.359 62.651,337.301 62.509,339.346 62.896 C 341.395 63.284,341.656 63.253,343.207 62.435 C 343.971 62.032,345.530 61.392,346.673 61.012 C 347.815 60.633,349.425 60.100,350.250 59.828 C 353.164 58.866,358.128 58.084,362.988 57.822 C 366.787 57.616,366.834 57.601,366.832 56.536 C 366.825 53.184,364.361 51.769,358.083 51.511 C 356.238 51.435,353.783 51.220,352.583 51.029 C 351.392 50.839,349.704 50.606,348.833 50.511 C 343.054 49.877,340.808 49.502,337.808 48.671 C 337.190 48.500,336.249 48.309,335.717 48.248 C 335.185 48.186,334.075 47.959,333.250 47.744 C 332.425 47.528,330.800 47.233,329.639 47.087 C 328.477 46.941,327.127 46.707,326.639 46.568 C 326.150 46.429,325.300 46.202,324.750 46.064 C 324.200 45.927,323.273 45.668,322.691 45.490 C 322.108 45.312,321.292 45.167,320.878 45.167 C 320.464 45.167,319.365 44.943,318.437 44.669 C 314.976 43.649,312.848 43.498,310.073 44.077 M267.088 46.565 C 269.378 46.717,270.582 46.866,270.921 47.041 C 271.194 47.181,271.869 47.411,272.422 47.552 C 279.407 49.331,282.463 55.001,279.389 60.478 C 279.047 61.086,278.562 62.005,278.310 62.520 C 276.825 65.555,272.734 67.141,268.827 66.195 C 268.051 66.008,266.949 65.813,266.376 65.763 C 265.804 65.713,264.880 65.480,264.324 65.246 C 261.904 64.227,258.547 63.836,254.862 64.142 L 253.473 64.257 252.584 65.182 C 251.085 66.742,251.020 67.580,252.246 69.493 C 253.082 70.799,253.831 71.325,255.433 71.736 C 255.992 71.879,256.855 72.175,257.350 72.394 C 258.236 72.786,262.776 74.000,263.355 74.000 C 263.517 74.000,264.348 74.219,265.200 74.487 C 266.053 74.755,267.500 75.145,268.417 75.353 C 269.347 75.564,270.636 76.006,271.333 76.352 C 272.021 76.694,273.023 77.166,273.560 77.402 C 279.509 80.016,282.983 90.173,280.947 99.000 C 280.725 99.962,280.493 101.098,280.431 101.522 C 280.173 103.299,277.746 107.701,276.264 109.083 C 275.969 109.358,275.404 110.015,275.009 110.543 C 274.615 111.071,273.908 111.783,273.440 112.126 C 272.972 112.469,272.156 113.136,271.627 113.607 C 269.360 115.626,263.931 117.894,259.916 118.498 C 253.143 119.518,247.426 119.242,238.671 117.475 C 233.999 116.532,230.267 113.999,229.131 111.000 C 227.559 106.852,228.540 100.734,231.087 98.792 C 233.962 96.601,236.380 96.316,241.083 97.618 C 241.908 97.846,243.371 98.251,244.333 98.519 C 245.296 98.786,246.678 99.077,247.404 99.165 C 248.131 99.253,249.331 99.533,250.071 99.788 C 251.392 100.242,251.487 100.250,255.333 100.250 L 259.250 100.250 260.163 99.732 C 262.026 98.675,262.716 96.654,261.923 94.576 C 261.476 93.408,259.164 91.934,256.667 91.227 C 256.162 91.084,254.891 90.711,253.842 90.397 C 252.793 90.083,251.405 89.746,250.759 89.648 C 250.112 89.549,249.034 89.251,248.364 88.985 C 247.667 88.708,246.560 88.434,245.780 88.345 C 242.372 87.956,238.635 85.951,236.265 83.240 C 235.582 82.459,234.865 81.466,234.672 81.035 C 234.479 80.603,234.107 79.837,233.846 79.333 C 232.583 76.894,231.881 70.258,232.569 67.250 C 233.665 62.452,234.004 61.511,235.610 58.813 C 237.089 56.329,237.644 55.648,239.750 53.731 C 241.419 52.213,242.118 51.639,244.221 50.061 C 246.499 48.352,251.782 46.864,256.323 46.652 C 258.196 46.565,259.765 46.457,259.809 46.413 C 259.958 46.264,263.736 46.343,267.088 46.565 M220.433 51.839 C 226.077 53.106,229.292 58.342,227.572 63.466 C 227.082 64.925,224.797 68.511,223.407 70.000 C 222.937 70.504,222.194 71.361,221.757 71.904 C 221.321 72.447,220.577 73.245,220.105 73.676 C 219.632 74.108,218.951 74.966,218.590 75.583 C 218.228 76.202,217.291 77.353,216.502 78.147 C 215.714 78.940,214.837 79.924,214.553 80.336 C 214.268 80.747,213.833 81.271,213.586 81.500 C 213.338 81.729,212.873 82.365,212.551 82.912 C 212.230 83.460,211.473 84.360,210.870 84.912 C 209.065 86.565,208.487 87.765,209.085 88.618 C 209.343 88.987,212.584 92.284,221.348 101.094 C 224.090 103.850,226.333 106.213,226.333 106.345 C 226.333 106.477,226.708 107.371,227.167 108.333 C 230.174 114.645,224.672 122.078,217.000 122.068 C 213.191 122.064,211.582 121.110,206.009 115.555 C 204.093 113.645,202.446 112.008,202.347 111.917 C 202.249 111.825,199.496 109.065,196.230 105.783 C 191.652 101.183,190.210 99.827,189.937 99.866 L 189.583 99.917 189.497 109.104 L 189.410 118.291 188.580 119.918 C 187.703 121.638,186.564 123.048,185.433 123.816 C 182.437 125.849,174.820 126.736,171.962 125.384 C 169.389 124.168,168.756 123.403,167.759 120.305 L 167.187 118.527 167.236 91.305 C 167.282 66.079,167.306 64.010,167.574 63.083 C 168.387 60.265,170.683 57.786,173.448 56.739 C 175.878 55.820,175.903 55.816,179.667 55.787 L 183.250 55.759 184.667 56.319 C 186.505 57.045,186.921 57.371,187.997 58.928 C 189.463 61.049,189.385 60.430,189.447 70.409 C 189.477 75.263,189.568 79.301,189.650 79.383 C 189.878 79.611,190.566 79.078,191.343 78.071 C 191.726 77.574,192.103 77.167,192.179 77.167 C 192.256 77.167,192.773 76.585,193.329 75.875 C 193.885 75.165,194.942 73.908,195.677 73.083 C 196.412 72.258,197.214 71.246,197.458 70.833 C 198.084 69.773,199.927 67.671,201.320 66.428 C 201.621 66.160,202.057 65.635,202.288 65.262 C 202.857 64.346,205.012 61.691,205.637 61.135 C 205.915 60.888,206.766 59.877,207.529 58.887 C 212.038 53.039,216.041 50.852,220.433 51.839 M160.266 58.013 C 161.908 58.359,164.385 60.054,164.801 61.115 C 165.068 61.795,165.629 64.731,165.745 66.052 C 165.922 68.071,164.626 71.349,163.055 72.855 C 160.992 74.831,159.143 75.383,152.750 75.926 C 144.501 76.627,144.657 76.608,144.193 76.955 L 143.750 77.285 143.638 80.762 C 143.565 83.041,143.586 84.349,143.699 84.560 C 143.901 84.938,145.029 84.904,151.644 84.314 C 156.683 83.865,159.874 84.155,160.797 85.145 C 161.022 85.386,161.489 85.883,161.834 86.250 C 163.082 87.575,163.416 88.826,163.417 92.167 C 163.417 96.801,162.368 98.961,159.427 100.385 C 156.941 101.589,156.300 101.716,150.500 102.164 C 145.373 102.559,143.915 102.804,143.766 103.295 C 143.055 105.649,143.488 110.871,144.424 111.230 C 144.809 111.377,146.527 111.342,148.083 111.155 C 161.385 109.552,163.881 110.250,165.350 115.985 C 166.413 120.134,164.809 125.247,162.000 126.659 C 160.274 127.527,156.613 128.333,154.398 128.333 C 153.858 128.333,152.367 128.444,151.083 128.579 C 149.800 128.715,147.100 128.980,145.083 129.169 C 143.067 129.357,140.742 129.581,139.917 129.666 C 139.092 129.751,137.742 129.869,136.917 129.927 C 136.092 129.986,134.704 130.138,133.833 130.266 C 127.614 131.178,123.199 129.523,121.887 125.789 C 121.208 123.856,120.997 70.534,121.659 67.948 C 122.435 64.911,124.256 62.456,126.462 61.469 C 127.476 61.015,129.986 60.333,130.644 60.333 C 130.977 60.333,132.150 60.183,133.250 59.999 C 134.350 59.816,136.487 59.588,138.000 59.494 C 139.512 59.399,142.244 59.137,144.070 58.911 C 145.895 58.685,147.850 58.500,148.414 58.500 C 148.977 58.500,150.296 58.378,151.344 58.228 C 154.841 57.729,158.504 57.641,160.266 58.013 M360.417 61.336 C 359.775 61.402,358.912 61.536,358.500 61.635 C 358.087 61.734,356.668 61.973,355.345 62.166 C 352.077 62.642,348.940 63.977,345.943 66.167 C 344.291 67.374,342.833 70.750,342.833 73.370 C 342.833 74.844,344.404 80.896,345.094 82.083 C 345.308 82.450,345.831 83.419,346.257 84.238 C 348.194 87.952,351.587 91.319,354.250 92.167 C 354.617 92.284,355.646 92.706,356.538 93.104 C 359.006 94.208,361.744 94.419,366.333 93.862 C 370.759 93.325,377.103 88.794,378.160 85.417 C 378.275 85.050,378.598 84.337,378.878 83.833 C 379.353 82.978,379.931 81.301,380.672 78.631 C 381.133 76.968,381.421 72.926,381.197 71.261 C 381.098 70.522,381.019 69.554,381.023 69.110 C 381.048 66.130,377.595 62.506,374.333 62.088 C 373.921 62.036,372.833 61.881,371.917 61.745 C 369.529 61.390,362.378 61.136,360.417 61.336 M114.543 62.490 C 116.294 62.937,117.084 63.380,117.622 64.212 C 117.872 64.599,118.362 65.301,118.710 65.771 C 119.581 66.947,119.725 67.896,119.535 71.191 C 119.377 73.938,119.421 73.777,118.248 75.971 C 117.233 77.867,114.989 79.183,111.974 79.648 C 109.186 80.077,107.100 80.327,105.524 80.418 C 103.792 80.518,98.836 81.205,98.293 81.420 C 97.523 81.725,97.366 88.275,98.112 89.019 C 98.529 89.437,100.914 89.330,106.583 88.640 C 109.509 88.284,110.745 88.321,113.440 88.848 C 115.173 89.187,116.996 91.708,117.587 94.583 C 118.444 98.750,116.265 104.130,113.339 105.074 C 110.983 105.835,107.629 106.360,101.608 106.912 C 97.428 107.295,97.592 107.090,97.607 111.895 C 97.617 114.922,97.645 115.239,97.924 115.443 C 98.436 115.817,100.042 115.749,108.425 114.998 C 115.727 114.344,117.893 115.356,119.429 120.139 C 120.168 122.440,119.380 126.957,117.843 129.235 C 116.278 131.555,114.753 132.129,108.750 132.659 C 107.558 132.764,105.983 132.919,105.250 133.003 C 104.517 133.087,102.792 133.236,101.417 133.333 C 100.042 133.431,97.267 133.692,95.250 133.913 C 93.233 134.135,90.458 134.401,89.083 134.505 C 87.708 134.610,85.721 134.760,84.667 134.839 C 82.613 134.994,82.170 134.933,80.333 134.237 C 77.606 133.203,76.514 131.875,75.652 128.541 C 75.231 126.910,75.154 78.632,75.565 73.959 C 76.040 68.565,79.589 65.038,84.921 64.660 C 86.026 64.582,87.414 64.441,88.006 64.348 C 88.599 64.255,90.321 64.100,91.833 64.004 C 93.346 63.907,95.558 63.714,96.750 63.573 C 97.942 63.433,99.667 63.249,100.583 63.165 C 101.500 63.080,102.888 62.932,103.667 62.836 C 109.382 62.128,112.714 62.022,114.543 62.490 M306.653 62.901 C 306.615 62.938,304.858 63.089,302.750 63.236 C 297.340 63.615,295.176 64.161,291.606 66.050 C 288.899 67.482,287.454 72.376,288.101 77.917 C 288.710 83.135,291.224 89.473,293.208 90.795 C 293.552 91.024,293.979 91.447,294.157 91.735 C 295.031 93.148,300.239 95.483,303.167 95.774 C 307.385 96.192,312.745 95.080,315.247 93.268 C 315.641 92.983,316.553 92.325,317.275 91.806 C 319.551 90.168,322.464 86.719,323.236 84.750 C 323.487 84.108,323.916 83.232,324.189 82.803 C 324.513 82.296,324.884 81.248,325.252 79.803 C 325.564 78.582,325.901 77.321,326.002 77.000 C 326.341 75.923,326.403 72.711,326.113 71.312 C 325.571 68.701,324.384 67.077,322.333 66.140 C 321.554 65.784,320.429 65.240,319.833 64.930 C 317.499 63.716,307.412 62.163,306.653 62.901 M56.440 66.572 C 57.160 66.703,58.163 66.860,58.667 66.921 C 61.298 67.240,65.429 68.896,67.833 70.595 C 68.246 70.886,68.921 71.293,69.333 71.498 C 70.488 72.074,71.916 73.702,72.820 75.473 C 73.835 77.463,72.431 83.309,70.570 84.843 C 70.409 84.975,70.031 85.469,69.729 85.940 C 68.595 87.710,65.496 89.123,63.142 88.946 C 60.072 88.714,59.209 88.556,58.226 88.047 C 52.531 85.097,39.086 85.203,36.788 88.216 C 36.503 88.589,36.054 88.893,35.479 89.100 C 34.488 89.459,32.014 92.069,31.309 93.500 C 31.106 93.912,30.764 94.533,30.549 94.879 C 30.334 95.224,30.041 95.964,29.898 96.522 C 29.755 97.080,29.461 98.008,29.244 98.584 C 29.000 99.232,28.815 100.164,28.759 101.024 C 28.709 101.790,28.626 102.942,28.574 103.583 C 28.181 108.448,29.887 112.928,33.583 116.734 C 35.001 118.194,37.716 119.400,40.200 119.672 C 42.430 119.916,46.255 119.803,47.167 119.466 C 50.077 118.389,51.795 116.635,51.967 114.567 C 52.075 113.264,51.926 113.206,48.694 113.300 C 45.804 113.383,45.305 113.292,43.264 112.310 C 41.012 111.226,39.681 108.090,39.881 104.340 C 40.234 97.722,43.401 94.995,51.500 94.334 C 54.357 94.102,57.932 93.750,60.917 93.407 C 62.463 93.230,64.206 93.159,66.083 93.197 L 68.917 93.253 69.955 93.815 C 71.115 94.442,72.545 96.361,73.124 98.069 C 73.494 99.158,73.662 121.208,73.319 123.667 C 73.006 125.916,71.583 128.453,69.175 131.057 C 68.662 131.612,66.214 133.400,63.951 134.873 C 63.565 135.124,61.932 135.741,60.322 136.244 C 58.711 136.747,57.059 137.307,56.651 137.487 C 56.243 137.668,55.030 137.970,53.955 138.160 C 52.880 138.350,51.494 138.611,50.875 138.740 C 44.250 140.128,34.609 139.914,29.219 138.259 C 27.066 137.598,22.037 135.154,20.866 134.200 C 20.435 133.849,19.521 133.122,18.833 132.585 C 13.030 128.044,9.600 122.159,7.919 113.855 C 7.101 109.817,7.020 102.518,7.760 99.500 C 7.906 98.904,8.167 97.629,8.339 96.667 C 8.686 94.729,9.372 92.568,10.084 91.167 C 10.341 90.662,11.051 89.160,11.662 87.828 C 13.190 84.500,17.192 79.091,19.500 77.235 C 19.821 76.977,20.463 76.425,20.927 76.008 C 23.161 74.002,28.189 70.758,30.491 69.837 C 30.909 69.670,31.850 69.293,32.583 68.999 C 35.997 67.630,37.232 67.357,42.762 66.751 C 44.126 66.602,45.275 66.447,45.316 66.406 C 45.518 66.204,55.210 66.348,56.440 66.572 M333.476 68.389 C 331.470 69.136,331.118 69.697,331.647 71.308 C 332.114 72.732,332.018 73.616,331.074 76.625 C 328.782 83.932,325.828 89.541,322.962 92.025 C 322.479 92.444,321.367 93.454,320.491 94.269 C 317.574 96.982,313.800 98.674,308.820 99.499 C 306.943 99.809,306.784 100.089,307.164 102.407 C 307.253 102.952,307.440 104.339,307.580 105.490 C 307.719 106.641,307.956 108.596,308.106 109.833 C 308.591 113.834,309.710 116.880,311.127 118.055 C 313.199 119.773,318.217 120.260,321.409 119.053 C 321.780 118.913,322.608 118.689,323.250 118.555 C 323.892 118.422,326.367 117.819,328.750 117.216 C 331.133 116.613,333.758 115.950,334.583 115.743 C 336.676 115.218,343.546 113.572,345.750 113.068 C 346.758 112.837,348.294 112.456,349.162 112.221 C 350.030 111.985,351.249 111.729,351.871 111.651 C 352.494 111.573,353.508 111.366,354.126 111.191 C 354.744 111.017,355.813 110.751,356.500 110.601 C 362.834 109.215,363.007 109.153,364.151 107.902 C 365.703 106.204,366.427 103.713,366.407 100.138 C 366.393 97.711,366.520 97.811,363.517 97.869 C 355.956 98.016,351.686 96.414,346.833 91.608 C 343.460 88.267,342.420 86.940,341.913 85.333 C 341.755 84.829,341.428 84.154,341.189 83.833 C 339.300 81.308,337.294 74.312,337.662 71.534 C 337.908 69.676,337.738 69.051,336.865 68.600 C 336.168 68.239,334.206 68.117,333.476 68.389 M274.472 119.257 C 277.093 120.035,277.500 121.434,277.500 129.661 C 277.500 139.298,277.717 139.150,262.333 140.004 C 260.637 140.098,257.975 140.282,256.417 140.413 C 254.858 140.543,252.346 140.697,250.833 140.754 C 249.321 140.811,247.033 140.963,245.750 141.092 C 243.379 141.330,237.848 141.728,233.167 141.999 C 230.550 142.150,224.612 142.542,220.500 142.836 C 211.442 143.484,211.271 143.295,211.361 132.750 L 211.417 126.250 211.861 125.500 C 212.840 123.848,214.198 123.000,215.861 123.000 C 216.312 123.000,217.709 122.893,218.966 122.761 C 220.222 122.630,222.450 122.475,223.917 122.416 C 225.383 122.358,227.071 122.242,227.667 122.158 C 228.735 122.007,237.911 121.363,244.083 121.005 C 245.825 120.904,248.825 120.715,250.750 120.586 C 252.675 120.456,255.000 120.307,255.917 120.255 C 256.833 120.202,258.446 120.086,259.500 119.997 C 260.554 119.907,263.067 119.711,265.083 119.560 C 267.100 119.410,269.313 119.234,270.000 119.169 C 272.169 118.963,273.576 118.991,274.472 119.257 M269.103 123.229 C 268.817 123.539,268.286 124.457,267.923 125.271 C 266.181 129.171,265.938 129.214,264.259 125.917 C 262.973 123.391,262.342 123.033,260.484 123.776 C 259.842 124.033,259.741 124.033,259.022 123.775 C 257.906 123.375,251.409 123.664,250.066 124.173 C 248.295 124.844,248.452 126.826,250.296 127.097 C 252.132 127.366,252.170 127.473,252.132 132.254 C 252.097 136.563,252.376 137.195,254.207 136.949 C 255.707 136.748,255.886 136.143,255.903 131.226 C 255.919 126.756,255.899 126.814,257.477 126.489 C 257.994 126.382,258.627 126.187,258.883 126.056 C 259.727 125.622,260.416 126.274,261.068 128.124 C 261.593 129.612,264.550 135.349,264.957 135.669 C 266.121 136.584,267.452 135.765,268.255 133.640 C 268.509 132.967,269.002 131.845,269.350 131.146 C 270.367 129.104,272.000 124.830,272.000 124.211 C 272.000 122.755,270.127 122.120,269.103 123.229 M240.224 125.479 C 239.669 125.827,239.594 126.040,239.418 127.750 C 239.139 130.456,238.945 130.467,236.444 127.915 L 234.404 125.833 233.558 125.833 C 232.106 125.833,231.459 126.607,231.163 128.695 C 230.933 130.314,230.814 130.369,230.097 129.190 C 228.332 126.284,224.113 125.236,220.793 126.879 C 216.980 128.765,215.571 134.151,218.002 137.546 C 220.648 141.242,227.788 140.185,230.103 135.754 C 230.714 134.583,231.167 134.724,231.167 136.086 C 231.167 138.514,232.920 139.772,234.334 138.358 C 234.829 137.864,234.891 137.628,235.115 135.417 C 235.332 133.274,235.716 133.415,238.853 136.787 C 240.692 138.763,242.625 138.422,243.015 136.052 C 243.370 133.894,243.086 126.014,242.637 125.566 C 242.200 125.129,240.858 125.080,240.224 125.479 M225.188 129.735 C 226.873 130.441,227.467 132.718,226.495 134.751 C 225.412 137.019,221.670 136.978,220.714 134.689 C 219.485 131.749,222.370 128.555,225.188 129.735 " stroke="none" fill="#fafbfb" fill-rule="evenodd"></path><path id="path2" d="M270.000 119.169 C 269.313 119.234,267.100 119.410,265.083 119.560 C 263.067 119.711,260.554 119.907,259.500 119.997 C 258.446 120.086,256.833 120.202,255.917 120.255 C 255.000 120.307,252.675 120.456,250.750 120.586 C 248.825 120.715,245.825 120.904,244.083 121.005 C 237.911 121.363,228.735 122.007,227.667 122.158 C 227.071 122.242,225.383 122.358,223.917 122.416 C 222.450 122.475,220.222 122.630,218.966 122.761 C 217.709 122.893,216.312 123.000,215.861 123.000 C 214.198 123.000,212.840 123.848,211.861 125.500 L 211.417 126.250 211.361 132.750 C 211.271 143.295,211.442 143.484,220.500 142.836 C 224.612 142.542,230.550 142.150,233.167 141.999 C 237.848 141.728,243.379 141.330,245.750 141.092 C 247.033 140.963,249.321 140.811,250.833 140.754 C 252.346 140.697,254.858 140.543,256.417 140.413 C 257.975 140.282,260.637 140.098,262.333 140.004 C 277.717 139.150,277.500 139.298,277.500 129.661 C 277.500 119.485,276.813 118.524,270.000 119.169 M271.513 123.154 C 271.861 123.502,272.000 123.803,272.000 124.211 C 272.000 124.830,270.367 129.104,269.350 131.146 C 269.002 131.845,268.509 132.967,268.255 133.640 C 267.452 135.765,266.121 136.584,264.957 135.669 C 264.550 135.349,261.593 129.612,261.068 128.124 C 260.416 126.274,259.727 125.622,258.883 126.056 C 258.627 126.187,257.994 126.382,257.477 126.489 C 255.899 126.814,255.919 126.756,255.903 131.226 C 255.886 136.143,255.707 136.748,254.207 136.949 C 252.376 137.195,252.097 136.563,252.132 132.254 C 252.170 127.473,252.132 127.366,250.296 127.097 C 248.452 126.826,248.295 124.844,250.066 124.173 C 251.409 123.664,257.906 123.375,259.022 123.775 C 259.741 124.033,259.842 124.033,260.484 123.776 C 262.342 123.033,262.973 123.391,264.259 125.917 C 265.938 129.214,266.181 129.171,267.923 125.271 C 269.084 122.671,270.308 121.949,271.513 123.154 M242.637 125.566 C 243.086 126.014,243.370 133.894,243.015 136.052 C 242.625 138.422,240.692 138.763,238.853 136.787 C 235.716 133.415,235.332 133.274,235.115 135.417 C 234.891 137.628,234.829 137.864,234.334 138.358 C 232.920 139.772,231.167 138.514,231.167 136.086 C 231.167 134.724,230.714 134.583,230.103 135.754 C 227.788 140.185,220.648 141.242,218.002 137.546 C 215.571 134.151,216.980 128.765,220.793 126.879 C 224.113 125.236,228.332 126.284,230.097 129.190 C 230.814 130.369,230.933 130.314,231.163 128.695 C 231.459 126.607,232.106 125.833,233.558 125.833 L 234.404 125.833 236.444 127.915 C 238.945 130.467,239.139 130.456,239.418 127.750 C 239.594 126.040,239.669 125.827,240.224 125.479 C 240.858 125.080,242.200 125.129,242.637 125.566 M222.814 129.730 C 220.853 130.431,219.887 132.711,220.714 134.689 C 221.670 136.978,225.412 137.019,226.495 134.751 C 227.982 131.640,225.800 128.663,222.814 129.730 " stroke="none" fill="#f4ba49" fill-rule="evenodd"></path><path id="path3" d="M305.083 6.117 C 299.868 6.804,300.104 13.600,305.365 14.252 C 306.615 14.407,306.216 13.769,310.947 23.167 C 313.231 27.704,315.223 31.604,315.372 31.833 C 315.857 32.579,317.000 35.337,317.000 35.763 C 317.000 36.390,316.696 36.407,314.209 35.917 C 302.317 33.573,296.207 34.405,293.008 38.803 C 291.471 40.916,291.368 41.743,291.234 53.167 C 291.133 61.681,291.112 61.884,290.274 62.155 C 288.889 62.603,285.544 63.351,283.907 63.578 C 281.439 63.921,281.162 64.330,281.382 67.314 L 281.476 68.583 282.306 69.333 C 283.403 70.326,283.791 71.155,283.995 72.946 C 284.803 80.044,285.404 83.202,286.493 86.065 C 287.916 89.807,291.197 94.312,293.287 95.393 C 294.421 95.979,294.647 96.616,295.074 100.417 C 295.323 102.639,296.199 109.398,296.488 111.333 C 296.765 113.183,297.500 119.521,297.500 120.055 C 297.500 123.911,300.773 127.521,305.074 128.409 C 308.159 129.047,313.576 128.806,317.917 127.839 C 322.458 126.827,327.918 125.501,329.667 124.986 C 330.537 124.729,332.525 124.178,334.083 123.762 C 339.812 122.230,344.306 120.876,354.833 117.509 C 357.354 116.703,359.867 115.915,360.417 115.758 C 362.313 115.219,364.255 114.456,366.026 113.557 C 370.611 111.227,371.009 110.229,371.242 100.493 C 371.360 95.540,371.274 95.785,373.262 94.784 C 379.923 91.428,383.796 84.113,384.839 72.917 C 385.246 68.541,385.497 67.637,386.633 66.464 C 387.493 65.574,387.738 64.538,387.550 62.583 C 387.390 60.922,387.200 60.794,384.583 60.582 C 383.417 60.487,381.711 60.202,376.667 59.257 C 375.979 59.129,375.079 58.978,374.667 58.922 C 372.494 58.627,372.401 58.527,372.194 56.276 C 371.884 52.902,370.269 50.999,365.167 47.996 C 362.399 46.367,361.087 45.941,354.917 44.667 C 353.542 44.383,351.442 43.930,350.250 43.661 C 343.648 42.166,340.675 41.512,338.083 40.986 C 333.635 40.082,333.668 40.158,336.106 36.402 C 336.993 35.035,338.618 32.529,339.716 30.833 C 342.204 26.991,342.036 27.146,343.581 27.276 C 347.508 27.608,349.700 22.643,346.713 20.179 C 343.415 17.459,338.854 20.384,340.082 24.432 C 340.412 25.520,340.411 25.523,339.818 26.269 C 339.254 26.979,333.902 32.585,330.330 36.208 C 327.415 39.164,327.117 39.198,325.397 36.770 C 324.870 36.026,323.976 34.779,323.410 34.000 C 322.438 32.662,319.720 28.724,317.083 24.833 C 316.430 23.871,315.418 22.408,314.832 21.583 C 309.261 13.730,308.774 12.849,309.250 11.500 C 310.248 8.672,307.975 5.736,305.083 6.117 M306.988 7.125 C 308.542 7.918,309.156 9.774,308.496 11.679 L 308.088 12.855 308.486 13.552 C 308.706 13.936,309.328 14.850,309.870 15.583 C 310.412 16.317,311.298 17.592,311.840 18.417 C 312.381 19.242,313.422 20.779,314.153 21.833 C 315.588 23.903,316.406 25.088,319.331 29.333 C 320.373 30.846,321.719 32.774,322.321 33.618 C 322.924 34.462,323.931 35.904,324.560 36.824 C 325.870 38.738,326.426 39.167,327.603 39.167 L 328.417 39.167 330.583 36.944 C 331.775 35.721,334.100 33.302,335.750 31.569 C 337.400 29.835,339.217 27.950,339.787 27.380 C 341.040 26.128,341.135 25.817,340.743 24.243 C 339.828 20.570,343.951 18.252,346.558 20.974 C 348.700 23.210,346.793 26.630,343.450 26.546 C 341.643 26.500,341.580 26.538,340.537 28.266 C 339.594 29.830,338.125 32.106,335.460 36.129 C 332.404 40.745,332.134 40.485,342.083 42.510 C 343.000 42.696,345.363 43.216,347.333 43.664 C 349.304 44.113,352.192 44.751,353.750 45.082 C 360.388 46.494,361.718 46.896,364.250 48.251 C 367.538 50.010,369.459 51.590,370.560 53.440 C 371.401 54.853,371.435 54.972,371.588 57.042 C 371.749 59.206,371.706 59.182,376.833 60.001 C 377.521 60.111,379.283 60.415,380.750 60.677 C 382.217 60.939,384.074 61.240,384.878 61.344 C 386.744 61.588,386.833 61.698,386.833 63.754 L 386.833 65.268 386.239 65.842 C 384.879 67.157,384.800 67.426,384.159 72.917 C 382.999 82.852,380.614 88.538,376.199 91.890 C 373.945 93.600,373.508 93.894,372.286 94.516 C 370.637 95.355,370.706 95.126,370.586 100.194 C 370.387 108.625,370.069 110.006,367.957 111.636 C 366.794 112.533,363.294 114.181,361.219 114.810 C 359.517 115.325,356.907 116.136,348.750 118.683 C 346.092 119.514,342.867 120.520,341.583 120.921 C 338.886 121.762,332.051 123.708,330.583 124.052 C 330.033 124.182,329.208 124.412,328.750 124.564 C 328.292 124.717,326.754 125.107,325.333 125.432 C 323.912 125.757,321.962 126.206,321.000 126.430 C 308.278 129.398,301.513 128.433,299.080 123.300 C 298.434 121.940,298.405 121.787,297.823 116.750 C 297.492 113.882,297.041 110.422,296.672 107.917 C 296.578 107.275,296.312 105.100,296.081 103.083 C 295.248 95.801,295.170 95.540,293.593 94.715 C 292.260 94.017,289.736 91.092,288.492 88.803 C 286.551 85.230,285.999 83.015,284.671 73.469 C 284.266 70.556,283.938 69.684,283.009 69.045 C 282.195 68.487,282.081 68.152,282.096 66.368 C 282.112 64.582,282.172 64.525,284.449 64.151 C 286.916 63.746,290.033 63.060,290.730 62.769 C 291.599 62.406,291.698 62.072,291.677 59.582 C 291.639 55.157,292.161 42.296,292.414 41.417 C 293.561 37.426,298.849 34.763,304.661 35.250 C 307.356 35.476,311.378 36.049,314.100 36.595 C 317.437 37.264,317.350 37.258,317.854 36.850 C 318.437 36.378,318.697 36.949,310.436 20.583 C 306.713 13.209,307.155 13.851,305.622 13.585 C 302.966 13.124,301.708 11.628,302.156 9.467 C 302.605 7.303,305.032 6.128,306.988 7.125 M54.833 42.179 C 49.413 42.634,48.529 42.881,47.403 44.256 L 46.801 44.990 46.192 44.508 C 45.330 43.826,44.385 43.610,43.204 43.826 C 41.055 44.221,40.539 45.198,40.512 48.933 C 40.498 50.924,40.383 51.099,38.983 51.264 C 38.242 51.351,38.008 51.317,37.781 51.091 C 37.489 50.799,37.477 50.686,37.440 47.887 C 37.394 44.499,34.448 43.442,31.870 45.890 C 31.407 46.329,31.279 46.377,31.037 46.202 C 29.610 45.173,29.212 45.140,24.500 45.655 C 22.896 45.831,20.983 46.024,20.250 46.084 C 16.009 46.433,15.000 46.993,15.000 49.001 C 15.000 50.843,15.646 51.374,17.923 51.400 C 19.947 51.424,19.788 50.908,19.907 57.809 C 20.017 64.123,20.046 64.331,20.896 64.888 C 21.910 65.552,24.173 65.262,25.158 64.341 C 25.933 63.617,25.998 63.044,25.999 56.893 C 26.000 50.198,25.870 50.651,27.881 50.358 C 29.221 50.163,29.990 49.865,30.607 49.301 C 31.208 48.753,31.248 49.121,31.298 55.667 C 31.361 63.804,31.423 64.000,33.909 64.000 C 36.658 64.000,37.285 63.184,37.449 59.387 C 37.571 56.551,37.603 56.500,39.277 56.500 C 40.594 56.500,40.574 56.459,40.597 59.167 C 40.625 62.480,41.017 63.083,43.143 63.083 C 44.698 63.083,45.767 62.558,46.374 61.495 C 46.803 60.744,46.985 60.690,47.432 61.184 C 48.213 62.047,49.607 62.222,52.657 61.840 C 53.441 61.741,54.820 61.591,55.720 61.506 C 58.213 61.269,59.167 60.503,59.167 58.736 C 59.167 56.682,58.562 56.268,55.785 56.421 C 53.623 56.541,53.333 56.453,53.333 55.678 C 53.333 54.872,53.657 54.656,55.258 54.389 C 57.799 53.965,58.667 53.261,58.667 51.626 C 58.667 49.697,57.843 49.070,55.481 49.203 C 53.556 49.311,53.500 49.291,53.500 48.507 C 53.500 47.640,53.711 47.518,55.805 47.185 C 58.453 46.764,59.165 46.149,59.166 44.281 C 59.167 43.062,58.981 42.718,58.112 42.323 C 57.364 41.983,57.231 41.977,54.833 42.179 M58.159 42.960 C 58.940 43.593,58.701 45.476,57.761 46.092 C 57.509 46.257,56.496 46.494,55.340 46.659 C 52.914 47.005,52.833 47.062,52.833 48.417 C 52.833 49.824,52.893 49.859,55.241 49.810 C 57.443 49.764,57.911 49.988,58.105 51.184 C 58.352 52.707,57.570 53.389,55.163 53.750 C 53.016 54.072,52.793 54.243,52.774 55.588 C 52.752 57.105,53.835 57.484,56.541 56.905 C 57.798 56.636,58.798 57.609,58.592 58.900 C 58.356 60.379,57.728 60.771,55.213 61.005 C 54.225 61.097,52.817 61.246,52.083 61.336 C 47.353 61.918,47.500 62.194,47.500 52.753 C 47.500 44.250,47.518 44.163,49.417 43.419 C 50.880 42.845,57.583 42.494,58.159 42.960 M309.460 42.847 C 305.406 43.441,302.539 46.131,302.015 49.833 C 301.491 53.541,301.315 59.887,301.726 60.298 C 302.072 60.643,302.938 60.759,304.500 60.667 C 311.157 60.275,317.715 61.306,324.500 63.809 C 326.933 64.707,327.872 64.779,330.583 64.271 C 332.647 63.885,337.261 63.828,339.871 64.156 C 341.940 64.416,342.376 64.317,345.705 62.820 C 351.000 60.440,356.168 59.349,363.761 59.007 C 368.401 58.798,368.640 58.680,368.443 56.698 C 368.037 52.613,364.555 50.342,358.686 50.336 C 355.672 50.333,354.425 50.214,349.750 49.480 C 348.008 49.206,345.871 48.873,345.000 48.739 C 344.129 48.605,342.667 48.379,341.750 48.237 C 340.833 48.096,339.633 47.871,339.083 47.738 C 337.526 47.361,333.480 46.526,331.000 46.069 C 329.762 45.841,327.813 45.438,326.667 45.172 C 325.521 44.907,323.871 44.539,323.000 44.354 C 322.129 44.168,320.554 43.827,319.500 43.594 C 315.309 42.670,312.232 42.441,309.460 42.847 M316.583 43.662 C 322.484 44.900,325.755 45.620,326.417 45.825 C 326.939 45.987,329.414 46.480,331.833 46.904 C 332.612 47.041,334.487 47.422,336.000 47.750 C 340.859 48.806,345.378 49.568,351.917 50.433 C 355.696 50.933,356.476 50.998,358.833 51.005 C 363.539 51.018,366.243 52.373,367.322 55.257 C 368.296 57.861,367.969 58.123,363.482 58.335 C 355.813 58.697,350.241 59.936,344.583 62.536 C 341.947 63.748,342.026 63.737,338.765 63.400 C 335.677 63.081,331.731 63.233,329.583 63.753 C 328.147 64.100,327.243 64.052,325.917 63.558 C 318.298 60.718,315.574 60.196,307.466 60.020 C 303.851 59.942,302.630 59.863,302.466 59.698 C 302.160 59.388,302.229 54.089,302.578 51.083 C 303.160 46.085,305.487 43.967,311.167 43.269 C 312.235 43.138,315.065 43.343,316.583 43.662 M45.227 44.563 C 46.178 44.960,46.184 45.022,46.132 53.342 C 46.086 60.468,46.065 60.944,45.766 61.385 C 44.949 62.591,42.414 62.957,41.598 61.987 C 41.181 61.492,41.167 61.399,41.167 59.262 C 41.167 55.912,41.011 55.684,38.878 55.902 C 36.987 56.096,36.836 56.368,36.834 59.583 C 36.832 62.575,36.307 63.351,34.203 63.469 C 31.861 63.600,31.835 63.502,31.835 54.583 C 31.835 45.901,31.857 45.813,34.132 45.325 C 36.258 44.869,36.726 45.461,36.833 48.741 C 36.937 51.891,36.901 51.833,38.761 51.833 C 40.944 51.833,41.025 51.722,41.128 48.572 C 41.211 46.021,41.327 45.526,41.976 44.938 C 42.613 44.362,44.284 44.169,45.227 44.563 M30.013 46.321 C 31.389 47.697,30.161 49.459,27.556 49.847 C 25.396 50.168,25.596 49.500,25.500 56.695 C 25.422 62.492,25.394 62.953,25.091 63.456 C 24.379 64.632,22.114 65.061,21.151 64.201 L 20.583 63.695 20.500 57.500 C 20.402 50.186,20.632 50.833,18.122 50.833 C 15.997 50.833,15.402 50.408,15.539 48.985 C 15.687 47.447,16.442 47.012,19.417 46.753 C 20.532 46.655,23.862 46.288,26.167 46.009 C 28.601 45.713,29.476 45.784,30.013 46.321 M259.333 47.015 C 249.460 47.399,244.407 49.510,238.573 55.690 C 232.775 61.831,231.107 72.763,234.860 80.023 C 236.906 83.981,239.970 86.300,244.653 87.434 C 245.990 87.757,247.871 88.238,248.833 88.503 C 249.796 88.767,251.371 89.182,252.333 89.425 C 259.924 91.339,262.239 92.694,262.832 95.569 C 263.820 100.365,257.990 102.297,249.000 100.151 C 247.854 99.877,246.279 99.503,245.500 99.319 C 244.721 99.136,242.550 98.604,240.675 98.138 C 236.373 97.068,235.580 97.060,233.305 98.066 C 230.320 99.386,228.934 101.983,228.938 106.250 C 228.944 112.373,232.359 115.845,239.667 117.158 C 240.721 117.347,241.958 117.576,242.417 117.666 C 247.539 118.675,255.445 118.778,260.480 117.902 C 268.587 116.491,276.382 110.238,279.323 102.786 C 281.446 97.405,281.346 88.956,279.105 84.286 C 276.581 79.028,272.336 76.461,263.069 74.592 C 254.581 72.880,250.679 70.561,250.861 67.337 C 251.087 63.348,256.258 62.301,264.417 64.591 C 265.517 64.900,266.867 65.228,267.417 65.319 C 267.967 65.411,269.011 65.611,269.737 65.765 C 274.271 66.721,278.188 63.592,279.770 57.750 C 281.329 51.996,275.445 47.461,265.921 47.077 C 264.727 47.028,263.450 46.968,263.083 46.942 C 262.717 46.917,261.029 46.949,259.333 47.015 M268.000 47.924 C 270.142 48.181,271.907 48.682,274.506 49.769 C 279.811 51.989,280.789 56.440,277.158 61.837 C 274.708 65.480,271.739 65.967,264.500 63.915 C 259.385 62.465,253.666 62.464,251.746 63.913 C 250.324 64.985,249.722 68.097,250.613 69.761 C 251.824 72.024,255.268 73.489,264.333 75.598 C 274.877 78.051,278.847 81.652,279.935 89.750 C 281.670 102.665,274.667 113.252,261.980 116.897 C 256.587 118.447,245.396 118.059,237.500 116.050 C 234.573 115.305,231.422 112.971,230.465 110.838 C 228.787 107.099,229.374 102.009,231.727 99.894 C 234.210 97.661,235.928 97.500,241.333 98.991 C 242.296 99.257,243.383 99.526,243.750 99.590 C 244.117 99.653,245.954 100.088,247.833 100.555 L 251.250 101.404 255.250 101.409 C 261.681 101.416,263.591 100.271,263.579 96.417 C 263.567 92.705,260.823 90.761,253.000 88.924 C 251.946 88.676,250.371 88.260,249.500 87.999 C 248.629 87.738,246.576 87.210,244.938 86.826 L 241.959 86.127 240.244 84.980 C 230.715 78.609,231.168 63.156,241.146 54.212 C 247.545 48.475,256.042 46.486,268.000 47.924 M217.083 52.164 C 214.394 52.726,211.802 54.736,208.192 59.060 C 207.104 60.363,206.075 61.568,205.905 61.738 C 205.735 61.908,205.368 62.329,205.090 62.673 C 202.612 65.738,201.809 66.709,201.086 67.509 C 200.626 68.019,199.650 69.177,198.917 70.083 C 198.183 70.989,197.283 72.079,196.917 72.505 C 196.550 72.931,195.688 73.944,195.000 74.756 C 194.313 75.568,193.445 76.573,193.073 76.991 C 192.701 77.408,191.940 78.313,191.384 79.000 C 188.769 82.228,188.860 82.501,188.900 71.522 C 188.937 61.470,188.864 60.874,187.363 59.022 C 185.519 56.745,183.409 56.045,178.916 56.218 C 173.018 56.446,169.121 59.099,168.051 63.616 C 167.648 65.315,167.527 116.612,167.920 118.917 C 168.856 124.403,172.729 126.478,179.833 125.300 C 186.276 124.231,188.800 121.093,188.907 114.019 C 188.936 112.038,188.971 107.829,188.983 104.667 C 188.995 101.504,189.072 98.811,189.154 98.682 C 189.431 98.243,190.278 99.027,200.073 108.799 C 209.643 118.345,210.452 119.104,212.409 120.369 C 218.349 124.209,227.724 118.740,227.470 111.583 C 227.419 110.143,227.379 110.007,226.472 108.167 L 225.528 106.250 217.055 97.601 C 208.592 88.960,208.003 88.323,208.001 87.810 C 208.000 87.446,209.331 85.672,211.636 82.965 C 212.673 81.747,214.173 79.968,214.969 79.013 C 215.765 78.058,216.691 76.970,217.027 76.597 C 217.362 76.223,217.962 75.490,218.360 74.969 C 218.758 74.447,220.096 72.851,221.333 71.422 C 227.457 64.349,228.696 60.977,226.644 56.956 C 225.200 54.125,220.052 51.545,217.083 52.164 M221.943 53.831 C 225.427 55.547,226.726 57.378,226.736 60.583 C 226.745 63.645,225.678 65.416,219.603 72.417 C 219.126 72.967,218.476 73.754,218.160 74.167 C 217.843 74.579,216.721 75.928,215.667 77.165 C 214.613 78.402,213.171 80.127,212.462 80.998 C 211.754 81.870,210.723 83.108,210.171 83.750 C 207.466 86.893,207.048 87.531,207.259 88.196 C 207.401 88.644,217.501 99.198,223.339 105.000 C 227.982 109.615,228.039 114.265,223.500 118.265 C 219.910 121.429,215.815 121.896,212.276 119.545 C 210.785 118.554,210.757 118.528,200.109 107.911 C 191.176 99.004,189.412 97.333,188.939 97.333 C 188.395 97.333,188.343 98.202,188.293 108.000 L 188.243 117.750 187.847 118.750 C 187.101 120.634,185.661 122.399,184.302 123.095 C 178.762 125.933,172.007 125.567,169.809 122.311 C 168.254 120.006,168.332 121.584,168.341 92.860 C 168.345 79.050,168.410 66.789,168.484 65.615 C 168.835 60.065,172.341 57.142,178.964 56.878 C 182.954 56.719,185.041 57.322,186.553 59.074 C 188.274 61.068,188.326 61.463,188.330 72.671 C 188.334 84.039,188.333 84.037,191.917 79.417 C 192.272 78.958,192.868 78.242,193.240 77.824 C 193.612 77.407,194.442 76.440,195.083 75.676 C 195.725 74.912,196.739 73.716,197.336 73.018 C 197.934 72.321,198.909 71.161,199.503 70.440 C 203.239 65.912,204.777 64.078,207.000 61.504 C 207.688 60.708,208.684 59.527,209.215 58.880 C 214.112 52.906,217.409 51.598,221.943 53.831 M154.917 58.438 C 154.642 58.468,153.142 58.611,151.583 58.755 C 147.686 59.115,143.873 59.481,142.083 59.666 C 141.258 59.752,139.983 59.867,139.250 59.923 C 138.517 59.978,137.017 60.128,135.917 60.255 C 134.817 60.383,133.092 60.567,132.083 60.666 C 126.401 61.221,123.153 63.659,122.093 68.167 C 121.731 69.707,121.712 122.006,122.073 124.030 C 122.890 128.610,126.866 130.686,133.196 129.836 C 134.330 129.684,135.732 129.545,142.500 128.913 C 143.921 128.780,146.658 128.522,148.583 128.340 C 150.508 128.158,153.321 127.895,154.833 127.754 C 161.847 127.103,164.397 125.182,165.018 120.083 C 165.876 113.034,162.472 110.154,154.368 111.074 C 146.965 111.914,143.756 112.072,143.419 111.613 C 142.871 110.867,142.839 102.985,143.382 102.587 C 143.709 102.349,145.309 102.141,149.917 101.740 C 156.893 101.131,159.106 100.540,160.788 98.834 C 163.687 95.893,163.835 88.982,161.055 86.310 C 159.106 84.436,157.555 84.280,148.780 85.081 C 142.394 85.663,143.099 86.118,143.032 81.369 C 142.951 75.734,142.396 76.277,148.779 75.744 C 157.430 75.022,159.065 74.758,160.903 73.788 C 164.346 71.971,165.949 67.320,164.691 62.792 C 163.695 59.207,160.574 57.817,154.917 58.438 M159.683 59.058 C 165.817 60.247,166.278 70.477,160.328 73.385 C 158.826 74.120,156.756 74.451,150.250 74.997 C 143.555 75.560,142.943 75.658,142.633 76.214 C 142.385 76.659,142.433 85.229,142.686 85.702 C 142.939 86.175,143.465 86.208,146.438 85.934 C 156.304 85.028,157.566 85.019,159.283 85.848 C 163.695 87.977,163.491 97.066,158.981 99.343 C 156.685 100.502,155.602 100.714,149.667 101.168 C 144.510 101.563,143.125 101.765,142.797 102.171 C 142.372 102.695,142.340 111.817,142.762 112.238 C 143.134 112.610,144.664 112.575,150.417 112.061 C 159.068 111.289,160.154 111.327,161.822 112.465 C 163.694 113.743,164.403 115.453,164.394 118.667 C 164.379 123.866,161.740 126.559,156.167 127.063 C 150.560 127.570,141.452 128.432,133.526 129.206 C 126.378 129.904,123.169 128.177,122.509 123.280 C 122.190 120.910,122.273 70.169,122.598 68.559 C 123.277 65.208,125.697 62.703,129.104 61.826 C 130.480 61.471,138.504 60.557,147.333 59.749 C 148.846 59.610,150.908 59.418,151.917 59.322 C 157.284 58.810,158.235 58.778,159.683 59.058 M359.667 60.239 C 350.918 61.371,344.776 63.993,343.094 67.313 C 340.645 72.144,342.204 81.869,346.226 86.860 C 348.038 89.108,348.710 89.813,350.239 91.070 C 355.342 95.268,361.440 96.436,368.833 94.632 C 373.795 93.422,379.128 88.169,380.573 83.068 C 380.727 82.526,381.102 81.371,381.407 80.500 C 382.236 78.135,382.740 74.394,382.607 71.583 C 382.246 63.926,379.531 61.349,370.750 60.324 C 368.252 60.032,361.655 59.982,359.667 60.239 M370.667 61.014 C 379.750 61.979,382.599 65.389,381.835 74.385 C 380.911 85.269,375.494 92.639,367.167 94.341 C 355.611 96.703,345.896 89.884,342.932 77.331 C 340.568 67.323,345.260 62.856,360.250 60.841 C 361.612 60.658,368.369 60.770,370.667 61.014 M304.250 61.748 C 302.875 61.870,301.262 62.049,300.667 62.144 C 300.071 62.239,299.133 62.364,298.583 62.423 C 295.792 62.722,292.553 63.827,290.671 65.122 C 283.985 69.726,286.218 87.525,294.247 93.631 C 300.634 98.489,310.817 98.252,317.763 93.084 C 327.030 86.190,330.787 70.660,324.377 65.743 C 322.326 64.169,318.307 62.739,314.583 62.257 C 313.483 62.114,312.096 61.924,311.500 61.834 C 309.616 61.550,306.834 61.517,304.250 61.748 M311.196 62.487 C 311.867 62.571,313.129 62.727,314.000 62.833 C 324.326 64.087,328.194 68.600,326.493 77.413 C 323.621 92.295,309.185 100.651,296.986 94.493 C 291.365 91.655,287.956 85.164,287.507 76.443 C 286.998 66.540,290.560 63.515,303.917 62.508 C 306.379 62.322,309.807 62.312,311.196 62.487 M107.917 62.916 C 106.725 63.041,104.888 63.226,103.833 63.328 C 102.779 63.431,100.379 63.665,98.500 63.850 C 96.621 64.034,94.333 64.252,93.417 64.333 C 87.740 64.836,83.483 65.357,82.614 65.656 C 79.331 66.786,77.162 68.970,76.229 72.083 C 75.889 73.222,75.652 125.485,75.977 127.831 C 76.737 133.313,80.207 134.928,89.250 134.008 C 90.992 133.830,95.417 133.419,99.083 133.093 C 113.122 131.845,114.587 131.581,116.442 129.957 C 119.739 127.071,120.101 120.010,117.111 116.927 C 115.571 115.341,113.396 115.074,106.750 115.656 C 97.495 116.467,97.487 116.467,97.255 115.876 C 97.077 115.424,97.144 107.520,97.329 107.175 C 97.536 106.789,97.818 106.741,102.333 106.333 C 109.021 105.729,111.254 105.344,113.124 104.470 C 118.463 101.975,118.527 91.338,113.214 89.413 C 112.170 89.035,108.668 88.896,106.619 89.152 C 100.827 89.876,97.592 89.983,97.312 89.460 C 96.992 88.862,97.089 81.362,97.421 80.995 C 97.702 80.685,98.791 80.530,104.417 80.000 C 112.731 79.217,114.257 78.896,116.006 77.563 C 120.603 74.060,120.066 64.892,115.163 63.179 C 113.786 62.698,110.980 62.596,107.917 62.916 M114.211 63.531 C 118.808 64.393,120.102 71.594,116.500 76.273 C 115.039 78.171,112.982 78.679,103.417 79.506 C 97.686 80.001,97.194 80.068,96.871 80.391 C 96.402 80.860,96.436 89.919,96.907 90.264 C 97.338 90.578,98.388 90.560,102.500 90.164 C 110.785 89.366,111.541 89.372,113.443 90.241 C 117.675 92.176,117.493 101.379,113.176 103.729 C 111.235 104.785,108.933 105.199,101.417 105.841 C 97.816 106.148,97.205 106.240,96.917 106.519 C 96.531 106.893,96.305 115.298,96.656 116.221 C 96.994 117.111,97.090 117.114,104.706 116.425 C 114.002 115.584,115.073 115.689,116.828 117.610 C 119.296 120.309,119.083 126.274,116.419 129.054 C 114.576 130.977,112.628 131.401,101.333 132.335 C 96.862 132.705,91.308 133.225,88.500 133.537 C 81.178 134.350,78.034 133.071,76.732 128.748 C 76.369 127.545,76.335 73.997,76.696 72.504 C 77.689 68.394,81.059 66.058,86.667 65.591 C 87.354 65.534,89.192 65.344,90.750 65.169 C 95.057 64.686,98.620 64.351,106.833 63.657 C 107.888 63.568,109.350 63.428,110.083 63.346 C 111.503 63.188,112.657 63.239,114.211 63.531 M47.167 66.828 C 35.252 67.486,27.667 70.448,20.099 77.400 C 4.306 91.906,3.382 118.778,18.240 131.482 C 26.316 138.388,35.264 140.537,48.167 138.669 C 61.015 136.809,68.632 132.870,71.882 126.405 C 73.091 124.000,73.050 124.456,73.123 112.423 C 73.204 99.022,73.146 98.452,71.429 95.943 C 69.688 93.399,68.498 93.215,59.333 94.079 C 56.996 94.299,53.752 94.599,52.125 94.745 C 43.572 95.513,40.325 98.254,40.336 104.700 C 40.346 110.716,42.751 112.921,49.242 112.865 C 52.740 112.835,52.660 112.810,52.664 113.941 C 52.692 121.516,37.802 122.963,32.066 115.942 C 25.234 107.579,27.252 93.692,36.151 87.824 C 40.681 84.837,50.084 84.475,57.180 87.013 C 63.907 89.420,66.317 89.066,69.503 85.205 C 73.884 79.896,73.723 75.229,69.045 71.936 C 67.450 70.814,62.966 68.492,61.500 68.030 C 58.352 67.037,52.404 66.538,47.167 66.828 M332.864 67.264 C 330.444 67.794,329.684 69.264,330.416 72.000 C 331.088 74.514,327.050 85.217,324.245 88.354 C 323.948 88.687,323.507 89.297,323.264 89.711 C 321.008 93.561,313.337 97.891,308.122 98.259 C 305.415 98.450,305.394 98.500,306.059 103.333 C 306.204 104.388,306.514 106.712,306.749 108.500 C 307.372 113.243,307.468 113.767,308.012 115.392 C 309.759 120.615,315.003 122.378,322.217 120.167 C 323.235 119.855,342.665 115.015,345.583 114.347 C 347.019 114.018,353.121 112.637,357.167 111.726 C 363.176 110.372,364.135 110.043,365.164 108.982 C 366.848 107.247,367.871 103.329,367.759 99.037 C 367.689 96.334,367.881 96.458,364.010 96.597 C 355.751 96.893,350.692 94.633,345.444 88.302 C 342.064 84.224,338.089 74.270,338.896 71.902 C 340.139 68.254,337.525 66.244,332.864 67.264 M55.667 67.516 C 62.968 68.268,70.347 72.215,71.851 76.173 C 72.716 78.450,71.667 81.644,68.988 84.888 C 66.053 88.443,64.147 88.771,58.167 86.748 C 53.426 85.144,51.537 84.837,46.390 84.835 C 34.852 84.830,28.023 91.660,27.560 103.667 C 27.153 114.200,33.181 120.932,43.000 120.910 C 49.576 120.896,52.971 118.604,53.141 114.065 C 53.214 112.093,53.197 112.080,50.604 112.265 C 43.706 112.757,40.833 110.549,40.833 104.754 C 40.833 98.371,44.102 95.883,53.417 95.173 C 54.608 95.082,57.946 94.789,60.833 94.522 C 69.061 93.762,70.395 94.190,71.952 98.092 L 72.414 99.250 72.499 109.250 C 72.621 123.762,72.587 124.154,70.923 126.987 C 67.401 132.985,60.066 136.422,46.667 138.349 C 27.139 141.158,11.647 130.777,8.732 112.927 C 6.408 98.697,11.790 84.538,22.833 75.830 C 25.216 73.952,25.418 73.812,27.664 72.507 C 32.912 69.456,37.702 68.106,45.417 67.505 C 49.785 67.165,52.285 67.167,55.667 67.516 M337.355 68.095 C 338.400 68.635,338.702 69.821,338.257 71.638 C 337.634 74.181,340.668 82.923,343.603 87.043 C 348.935 94.527,355.739 97.925,364.252 97.354 C 367.175 97.158,366.977 96.975,367.040 99.918 C 367.141 104.645,365.506 108.660,363.112 109.559 C 362.301 109.864,358.878 110.680,352.167 112.169 C 351.387 112.341,349.738 112.708,348.500 112.983 C 344.445 113.884,322.473 119.330,321.662 119.635 C 319.335 120.511,314.872 120.543,312.750 119.699 C 309.343 118.344,308.320 116.198,307.416 108.500 C 307.270 107.263,306.960 104.877,306.727 103.199 C 306.149 99.044,306.025 99.303,308.763 98.919 C 315.712 97.943,321.429 94.050,325.896 87.250 C 328.765 82.883,331.739 74.095,331.112 71.839 C 330.462 69.504,331.004 68.329,332.930 67.896 C 334.129 67.626,336.669 67.740,337.355 68.095 " stroke="none" fill="#9be7ef" fill-rule="evenodd"></path><path id="path4" d="M304.499 5.743 C 301.730 6.146,300.837 7.151,300.834 9.867 C 300.832 12.899,301.811 14.116,304.749 14.732 C 306.223 15.041,306.136 14.931,308.245 19.162 C 309.274 21.227,310.503 23.649,310.975 24.544 C 311.447 25.439,311.833 26.309,311.833 26.477 C 311.833 26.646,312.062 27.098,312.341 27.483 C 312.619 27.869,313.218 28.949,313.672 29.883 C 314.125 30.818,314.760 32.071,315.083 32.667 C 316.416 35.123,316.116 35.641,313.633 35.171 C 310.089 34.501,308.767 34.328,305.867 34.158 C 301.062 33.876,298.187 34.161,296.859 35.052 C 296.524 35.277,295.740 35.741,295.117 36.082 C 293.920 36.739,292.464 38.297,291.717 39.719 C 290.935 41.208,290.704 44.032,290.573 53.667 C 290.461 61.888,290.509 61.569,289.352 61.759 C 289.021 61.814,287.850 62.109,286.750 62.415 C 285.650 62.721,284.123 63.063,283.357 63.175 C 281.623 63.430,281.249 63.720,280.893 65.083 C 280.404 66.956,280.764 68.663,281.852 69.638 C 283.009 70.674,283.518 71.916,283.575 73.837 C 283.602 74.731,283.668 75.535,283.723 75.623 C 283.778 75.711,283.982 77.007,284.177 78.503 C 284.683 82.376,286.007 87.210,286.961 88.667 C 287.111 88.896,287.514 89.591,287.856 90.211 C 288.802 91.926,291.572 95.066,292.751 95.758 C 293.886 96.426,294.071 97.047,294.748 102.500 C 295.036 104.811,295.291 106.752,295.911 111.333 C 296.141 113.029,296.522 116.082,296.759 118.117 C 297.476 124.289,297.993 125.322,301.500 127.606 C 303.539 128.934,303.547 128.937,305.840 129.231 C 308.583 129.584,309.092 129.573,313.417 129.074 C 318.912 128.440,319.187 128.396,320.030 128.014 C 320.459 127.820,321.547 127.551,322.447 127.416 C 323.347 127.281,325.621 126.713,327.500 126.154 C 329.379 125.595,331.742 124.960,332.750 124.742 C 333.758 124.524,335.633 124.010,336.917 123.598 C 338.200 123.187,339.670 122.776,340.183 122.685 C 340.696 122.595,341.559 122.357,342.100 122.157 C 342.641 121.958,343.646 121.662,344.333 121.500 C 346.302 121.037,347.830 120.549,352.000 119.052 C 353.146 118.640,354.914 118.060,355.929 117.763 C 356.945 117.466,357.850 117.176,357.941 117.120 C 358.089 117.028,360.923 116.137,363.599 115.341 C 364.158 115.174,365.545 114.531,366.682 113.911 C 371.118 111.494,371.403 110.871,371.670 103.000 C 371.900 96.239,371.986 95.975,374.311 94.872 C 375.123 94.486,375.919 93.934,376.570 93.305 C 377.123 92.771,377.628 92.333,377.692 92.333 C 377.948 92.333,380.399 89.358,380.850 88.500 C 381.115 87.996,381.618 87.124,381.968 86.562 C 383.189 84.605,384.682 79.287,385.079 75.485 C 385.702 69.513,386.074 67.954,387.160 66.777 C 387.951 65.918,388.164 65.048,388.166 62.662 C 388.167 60.414,387.960 60.254,384.695 59.989 C 383.542 59.895,381.920 59.666,381.091 59.480 C 378.499 58.897,377.139 58.660,375.427 58.492 C 373.539 58.307,373.051 58.073,372.935 57.293 C 372.577 54.888,372.482 54.339,372.324 53.780 C 372.225 53.430,371.899 52.867,371.598 52.530 C 371.298 52.193,370.789 51.502,370.468 50.995 C 370.036 50.312,369.673 49.967,369.067 49.662 C 368.618 49.435,367.837 48.979,367.333 48.648 C 366.829 48.318,366.079 47.876,365.667 47.668 C 365.254 47.460,364.654 47.084,364.333 46.834 C 363.073 45.851,360.215 45.026,354.250 43.925 C 352.508 43.603,350.408 43.151,349.583 42.921 C 348.758 42.690,347.810 42.501,347.476 42.501 C 347.142 42.500,346.392 42.355,345.809 42.177 C 343.855 41.582,339.934 40.687,338.020 40.399 C 334.839 39.921,334.708 39.524,336.742 36.532 C 337.408 35.552,338.122 34.412,338.329 34.000 C 338.536 33.587,338.924 32.950,339.191 32.583 C 339.458 32.217,340.245 31.054,340.941 30.000 C 342.445 27.720,342.291 27.836,343.657 27.948 C 348.871 28.378,350.744 21.420,346.057 19.029 C 342.361 17.143,338.580 20.283,339.482 24.489 C 339.730 25.645,338.510 27.436,336.883 28.307 C 336.687 28.412,336.290 28.910,336.002 29.413 C 335.705 29.932,335.167 30.552,334.759 30.845 C 334.363 31.129,333.674 31.787,333.228 32.306 C 330.365 35.637,327.801 37.951,327.188 37.757 C 326.809 37.637,324.745 34.947,322.546 31.708 C 322.250 31.273,321.785 30.617,321.512 30.250 C 321.239 29.883,320.738 29.212,320.399 28.758 C 320.061 28.304,319.589 27.614,319.350 27.226 C 319.112 26.837,318.547 25.971,318.094 25.301 C 317.642 24.631,316.747 23.296,316.105 22.333 C 315.463 21.371,314.671 20.253,314.345 19.850 C 314.019 19.447,312.829 17.722,311.701 16.017 L 309.649 12.917 309.749 12.083 C 309.978 10.179,310.032 9.142,309.931 8.603 C 309.767 7.729,308.581 6.356,307.593 5.896 C 306.653 5.458,306.506 5.451,304.499 5.743 M307.357 6.517 C 309.072 7.379,309.918 9.606,309.250 11.500 C 308.774 12.849,309.261 13.730,314.832 21.583 C 315.418 22.408,316.430 23.871,317.083 24.833 C 319.720 28.724,322.438 32.662,323.410 34.000 C 323.976 34.779,324.870 36.026,325.397 36.770 C 327.117 39.198,327.415 39.164,330.330 36.208 C 333.902 32.585,339.254 26.979,339.818 26.269 C 340.411 25.523,340.412 25.520,340.082 24.432 C 338.854 20.384,343.415 17.459,346.713 20.179 C 349.700 22.643,347.508 27.608,343.581 27.276 C 342.036 27.146,342.204 26.991,339.716 30.833 C 338.618 32.529,336.993 35.035,336.106 36.402 C 333.668 40.158,333.635 40.082,338.083 40.986 C 340.675 41.512,343.648 42.166,350.250 43.661 C 351.442 43.930,353.542 44.383,354.917 44.667 C 361.087 45.941,362.399 46.367,365.167 47.996 C 370.269 50.999,371.884 52.902,372.194 56.276 C 372.401 58.527,372.494 58.627,374.667 58.922 C 375.079 58.978,375.979 59.129,376.667 59.257 C 381.711 60.202,383.417 60.487,384.583 60.582 C 387.200 60.794,387.390 60.922,387.550 62.583 C 387.738 64.538,387.493 65.574,386.633 66.464 C 385.497 67.637,385.246 68.541,384.839 72.917 C 383.796 84.113,379.923 91.428,373.262 94.784 C 371.274 95.785,371.360 95.540,371.242 100.493 C 371.009 110.229,370.611 111.227,366.026 113.557 C 364.255 114.456,362.313 115.219,360.417 115.758 C 359.867 115.915,357.354 116.703,354.833 117.509 C 344.306 120.876,339.812 122.230,334.083 123.762 C 332.525 124.178,330.537 124.729,329.667 124.986 C 327.918 125.501,322.458 126.827,317.917 127.839 C 313.576 128.806,308.159 129.047,305.074 128.409 C 300.773 127.521,297.500 123.911,297.500 120.055 C 297.500 119.521,296.765 113.183,296.488 111.333 C 296.199 109.398,295.323 102.639,295.074 100.417 C 294.647 96.616,294.421 95.979,293.287 95.393 C 289.679 93.527,285.875 86.449,284.914 79.814 C 284.504 76.983,284.173 74.510,283.995 72.946 C 283.791 71.155,283.403 70.326,282.306 69.333 L 281.476 68.583 281.382 67.314 C 281.162 64.330,281.439 63.921,283.907 63.578 C 285.544 63.351,288.889 62.603,290.274 62.155 C 291.112 61.884,291.133 61.681,291.234 53.167 C 291.368 41.743,291.471 40.916,293.008 38.803 C 296.207 34.405,302.317 33.573,314.209 35.917 C 316.696 36.407,317.000 36.390,317.000 35.763 C 317.000 35.337,315.857 32.579,315.372 31.833 C 315.223 31.604,313.231 27.704,310.947 23.167 C 306.216 13.769,306.615 14.407,305.365 14.252 C 302.399 13.884,300.914 11.904,301.498 9.093 C 302.003 6.660,305.010 5.337,307.357 6.517 M54.167 41.782 C 50.345 41.931,48.891 42.272,47.585 43.325 C 46.853 43.914,46.760 43.917,44.868 43.402 C 41.956 42.610,40.023 44.405,39.983 47.936 C 39.963 49.791,39.851 50.195,39.282 50.469 C 38.251 50.965,37.771 50.213,37.842 48.212 C 37.920 45.985,37.892 45.853,37.202 45.163 C 36.041 44.002,34.490 43.901,32.506 44.858 L 31.427 45.379 30.288 45.083 C 29.092 44.773,27.867 44.787,24.833 45.148 C 24.054 45.240,22.254 45.399,20.833 45.500 C 15.852 45.856,14.501 46.595,14.500 48.964 C 14.500 50.957,15.238 51.699,17.352 51.826 C 19.163 51.935,19.325 52.077,19.351 53.574 C 19.523 63.136,19.584 64.433,19.888 64.897 C 21.083 66.719,25.715 65.738,26.327 63.533 C 26.428 63.168,26.499 60.637,26.499 57.317 C 26.500 50.770,26.304 51.358,28.662 50.843 C 30.913 50.352,30.747 49.934,30.764 56.131 C 30.784 63.893,31.030 64.511,34.083 64.492 C 36.912 64.474,38.229 62.533,37.886 58.889 C 37.740 57.337,38.729 56.512,39.819 57.275 C 40.200 57.542,40.209 57.601,40.102 59.122 C 39.809 63.292,42.439 64.991,45.750 62.770 C 46.979 61.946,46.944 61.956,47.795 62.225 C 49.126 62.646,50.363 62.707,51.947 62.432 C 52.755 62.291,54.307 62.101,55.394 62.009 C 57.774 61.808,58.381 61.553,59.125 60.439 C 60.597 58.237,59.353 55.834,56.740 55.834 C 54.777 55.833,54.806 55.147,56.794 54.565 C 59.967 53.636,59.963 48.667,56.789 48.667 C 55.318 48.667,55.513 48.030,57.151 47.486 C 59.206 46.803,59.667 46.158,59.667 43.963 C 59.667 42.880,59.415 42.487,58.424 42.021 C 57.651 41.658,57.522 41.651,54.167 41.782 M58.112 42.323 C 58.981 42.718,59.167 43.062,59.166 44.281 C 59.165 46.149,58.453 46.764,55.805 47.185 C 53.711 47.518,53.500 47.640,53.500 48.507 C 53.500 49.291,53.556 49.311,55.481 49.203 C 57.843 49.070,58.667 49.697,58.667 51.626 C 58.667 53.261,57.799 53.965,55.258 54.389 C 53.657 54.656,53.333 54.872,53.333 55.678 C 53.333 56.453,53.623 56.541,55.785 56.421 C 58.562 56.268,59.167 56.682,59.167 58.736 C 59.167 60.503,58.213 61.269,55.720 61.506 C 54.820 61.591,53.441 61.741,52.657 61.840 C 49.607 62.222,48.213 62.047,47.432 61.184 C 46.985 60.690,46.803 60.744,46.374 61.495 C 45.767 62.558,44.698 63.083,43.143 63.083 C 41.017 63.083,40.625 62.480,40.597 59.167 C 40.574 56.459,40.594 56.500,39.277 56.500 C 37.603 56.500,37.571 56.551,37.449 59.387 C 37.285 63.184,36.658 64.000,33.909 64.000 C 31.423 64.000,31.361 63.804,31.298 55.667 C 31.248 49.121,31.208 48.753,30.607 49.301 C 29.990 49.865,29.221 50.163,27.881 50.358 C 25.870 50.651,26.000 50.198,25.999 56.893 C 25.998 63.044,25.933 63.617,25.158 64.341 C 24.173 65.262,21.910 65.552,20.896 64.888 C 20.046 64.331,20.017 64.123,19.907 57.809 C 19.788 50.908,19.947 51.424,17.923 51.400 C 15.646 51.374,15.000 50.843,15.000 49.001 C 15.000 46.993,16.009 46.433,20.250 46.084 C 20.983 46.024,22.896 45.831,24.500 45.655 C 29.212 45.140,29.610 45.173,31.037 46.202 C 31.279 46.377,31.407 46.329,31.870 45.890 C 34.448 43.442,37.394 44.499,37.440 47.887 C 37.477 50.686,37.489 50.799,37.781 51.091 C 38.008 51.317,38.242 51.351,38.983 51.264 C 40.383 51.099,40.498 50.924,40.512 48.933 C 40.539 45.198,41.055 44.221,43.204 43.826 C 44.385 43.610,45.330 43.826,46.192 44.508 L 46.801 44.990 47.403 44.256 C 48.529 42.881,49.413 42.634,54.833 42.179 C 57.231 41.977,57.364 41.983,58.112 42.323 M311.167 43.269 C 305.487 43.967,303.160 46.085,302.578 51.083 C 302.229 54.089,302.160 59.388,302.466 59.698 C 302.630 59.863,303.851 59.942,307.466 60.020 C 315.574 60.196,318.298 60.718,325.917 63.558 C 327.243 64.052,328.147 64.100,329.583 63.753 C 331.731 63.233,335.677 63.081,338.765 63.400 C 342.026 63.737,341.947 63.748,344.583 62.536 C 350.241 59.936,355.813 58.697,363.482 58.335 C 367.969 58.123,368.296 57.861,367.322 55.257 C 366.243 52.373,363.539 51.018,358.833 51.005 C 356.476 50.998,355.696 50.933,351.917 50.433 C 345.378 49.568,340.859 48.806,336.000 47.750 C 334.487 47.422,332.612 47.041,331.833 46.904 C 329.414 46.480,326.939 45.987,326.417 45.825 C 325.755 45.620,322.484 44.900,316.583 43.662 C 315.065 43.343,312.235 43.138,311.167 43.269 M315.043 43.919 C 315.982 44.058,317.509 44.396,318.437 44.669 C 319.365 44.943,320.464 45.167,320.878 45.167 C 321.292 45.167,322.108 45.312,322.691 45.490 C 323.273 45.668,324.200 45.927,324.750 46.064 C 325.300 46.202,326.150 46.429,326.639 46.568 C 327.127 46.707,328.477 46.941,329.639 47.087 C 330.800 47.233,332.425 47.528,333.250 47.744 C 334.075 47.959,335.185 48.186,335.717 48.248 C 336.249 48.309,337.190 48.500,337.808 48.671 C 340.808 49.502,343.054 49.877,348.833 50.511 C 349.704 50.606,351.392 50.839,352.583 51.029 C 353.783 51.220,356.238 51.435,358.083 51.511 C 364.361 51.769,366.825 53.184,366.832 56.536 C 366.834 57.601,366.787 57.616,362.988 57.822 C 358.128 58.084,353.164 58.866,350.250 59.828 C 349.425 60.100,347.815 60.633,346.673 61.012 C 345.530 61.392,343.971 62.032,343.207 62.435 C 341.656 63.253,341.395 63.284,339.346 62.896 C 337.301 62.509,332.359 62.651,329.534 63.179 L 327.484 63.561 326.200 63.013 C 324.888 62.451,323.998 62.130,321.100 61.174 C 318.403 60.284,312.573 59.522,307.667 59.419 L 303.750 59.337 303.381 58.916 C 302.740 58.185,302.617 57.334,302.819 55.011 C 303.310 49.333,303.341 49.101,303.662 48.590 C 303.838 48.311,304.225 47.645,304.522 47.109 C 305.076 46.113,305.761 45.468,306.500 45.248 C 306.729 45.180,307.212 44.975,307.573 44.793 C 309.319 43.911,312.486 43.541,315.043 43.919 M259.809 46.413 C 259.765 46.457,258.196 46.565,256.323 46.652 C 251.782 46.864,246.499 48.352,244.221 50.061 C 239.339 53.724,237.568 55.524,235.610 58.813 C 234.004 61.511,233.665 62.452,232.569 67.250 C 231.881 70.258,232.583 76.894,233.846 79.333 C 234.107 79.837,234.479 80.603,234.672 81.035 C 235.759 83.465,239.306 86.351,242.711 87.576 C 243.711 87.936,244.981 88.254,245.780 88.345 C 246.560 88.434,247.667 88.708,248.364 88.985 C 249.034 89.251,250.112 89.549,250.759 89.648 C 251.405 89.746,252.793 90.083,253.842 90.397 C 254.891 90.711,256.162 91.084,256.667 91.227 C 259.164 91.934,261.476 93.408,261.923 94.576 C 262.716 96.654,262.026 98.675,260.163 99.732 L 259.250 100.250 255.333 100.250 C 251.487 100.250,251.392 100.242,250.071 99.788 C 249.331 99.533,248.131 99.253,247.404 99.165 C 246.678 99.077,245.296 98.786,244.333 98.519 C 243.371 98.251,241.908 97.846,241.083 97.618 C 236.380 96.316,233.962 96.601,231.087 98.792 C 228.540 100.734,227.559 106.852,229.131 111.000 C 230.267 113.999,233.999 116.532,238.671 117.475 C 247.426 119.242,253.143 119.518,259.916 118.498 C 263.931 117.894,269.360 115.626,271.627 113.607 C 272.156 113.136,272.972 112.469,273.440 112.126 C 273.908 111.783,274.615 111.071,275.009 110.543 C 275.404 110.015,275.969 109.358,276.264 109.083 C 277.746 107.701,280.173 103.299,280.431 101.522 C 280.493 101.098,280.725 99.962,280.947 99.000 C 282.983 90.173,279.509 80.016,273.560 77.402 C 273.023 77.166,272.021 76.694,271.333 76.352 C 270.636 76.006,269.347 75.564,268.417 75.353 C 267.500 75.145,266.053 74.755,265.200 74.487 C 264.348 74.219,263.517 74.000,263.355 74.000 C 262.776 74.000,258.236 72.786,257.350 72.394 C 256.855 72.175,255.992 71.879,255.433 71.736 C 253.831 71.325,253.082 70.799,252.246 69.493 C 251.020 67.580,251.085 66.742,252.584 65.182 L 253.473 64.257 254.862 64.142 C 258.547 63.836,261.904 64.227,264.324 65.246 C 264.880 65.480,265.804 65.713,266.376 65.763 C 266.949 65.813,268.051 66.008,268.827 66.195 C 272.734 67.141,276.825 65.555,278.310 62.520 C 278.562 62.005,279.047 61.086,279.389 60.478 C 282.463 55.001,279.407 49.331,272.422 47.552 C 271.869 47.411,271.194 47.181,270.921 47.041 C 270.155 46.647,260.141 46.081,259.809 46.413 M265.921 47.077 C 275.445 47.461,281.329 51.996,279.770 57.750 C 278.188 63.592,274.271 66.721,269.737 65.765 C 269.011 65.611,267.967 65.411,267.417 65.319 C 266.867 65.228,265.517 64.900,264.417 64.591 C 256.258 62.301,251.087 63.348,250.861 67.337 C 250.679 70.561,254.581 72.880,263.069 74.592 C 272.336 76.461,276.581 79.028,279.105 84.286 C 281.346 88.956,281.446 97.405,279.323 102.786 C 276.382 110.238,268.587 116.491,260.480 117.902 C 255.445 118.778,247.539 118.675,242.417 117.666 C 241.958 117.576,240.721 117.347,239.667 117.158 C 234.622 116.251,230.871 113.883,229.781 110.917 C 227.721 105.306,229.209 99.877,233.305 98.066 C 235.580 97.060,236.373 97.068,240.675 98.138 C 242.550 98.604,244.721 99.136,245.500 99.319 C 246.279 99.503,247.854 99.877,249.000 100.151 C 257.990 102.297,263.820 100.365,262.832 95.569 C 262.239 92.694,259.924 91.339,252.333 89.425 C 251.371 89.182,249.796 88.767,248.833 88.503 C 247.871 88.238,245.990 87.757,244.653 87.434 C 239.970 86.300,236.906 83.981,234.860 80.023 C 231.107 72.763,232.775 61.831,238.573 55.690 C 243.280 50.703,248.539 47.951,254.583 47.311 C 256.449 47.114,262.056 46.870,263.083 46.942 C 263.450 46.968,264.727 47.028,265.921 47.077 M216.917 51.675 C 214.283 52.035,210.673 54.808,207.529 58.887 C 206.766 59.877,205.915 60.888,205.637 61.135 C 205.012 61.691,202.857 64.346,202.288 65.262 C 202.057 65.635,201.621 66.160,201.320 66.428 C 199.927 67.671,198.084 69.773,197.458 70.833 C 197.214 71.246,196.412 72.258,195.677 73.083 C 194.942 73.908,193.885 75.165,193.329 75.875 C 192.773 76.585,192.256 77.167,192.179 77.167 C 192.103 77.167,191.726 77.574,191.343 78.071 C 190.566 79.078,189.878 79.611,189.650 79.383 C 189.568 79.301,189.477 75.263,189.447 70.409 C 189.385 60.430,189.463 61.049,187.997 58.928 C 186.921 57.371,186.505 57.045,184.667 56.319 L 183.250 55.759 179.667 55.787 C 175.903 55.816,175.878 55.820,173.448 56.739 C 170.683 57.786,168.387 60.265,167.574 63.083 C 167.306 64.010,167.282 66.079,167.236 91.305 L 167.187 118.527 167.759 120.305 C 168.756 123.403,169.389 124.168,171.962 125.384 C 174.820 126.736,182.437 125.849,185.433 123.816 C 186.564 123.048,187.703 121.638,188.580 119.918 L 189.410 118.291 189.497 109.104 L 189.583 99.917 189.937 99.866 C 190.210 99.827,191.652 101.183,196.230 105.783 C 199.496 109.065,202.249 111.825,202.347 111.917 C 202.446 112.008,204.093 113.645,206.009 115.555 C 211.582 121.110,213.191 122.064,217.000 122.068 C 224.672 122.078,230.174 114.645,227.167 108.333 C 226.708 107.371,226.333 106.477,226.333 106.345 C 226.333 106.213,224.090 103.850,221.348 101.094 C 212.584 92.284,209.343 88.987,209.085 88.618 C 208.487 87.765,209.065 86.565,210.870 84.912 C 211.473 84.360,212.230 83.460,212.551 82.912 C 212.873 82.365,213.338 81.729,213.586 81.500 C 213.833 81.271,214.268 80.747,214.553 80.336 C 214.837 79.924,215.714 78.940,216.502 78.147 C 217.291 77.353,218.228 76.202,218.590 75.583 C 218.951 74.966,219.632 74.108,220.105 73.676 C 220.577 73.245,221.321 72.447,221.757 71.904 C 222.194 71.361,222.937 70.504,223.407 70.000 C 229.865 63.080,229.496 55.888,222.517 52.643 C 220.505 51.708,218.815 51.416,216.917 51.675 M220.864 52.578 C 225.013 53.997,227.507 56.972,227.498 60.493 C 227.490 63.417,226.041 65.985,221.333 71.422 C 220.096 72.851,218.758 74.447,218.360 74.969 C 217.962 75.490,217.362 76.223,217.027 76.597 C 216.691 76.970,215.765 78.058,214.969 79.013 C 214.173 79.968,212.673 81.747,211.636 82.965 C 209.331 85.672,208.000 87.446,208.001 87.810 C 208.003 88.323,208.592 88.960,217.055 97.601 L 225.528 106.250 226.472 108.167 C 227.379 110.007,227.419 110.143,227.470 111.583 C 227.724 118.740,218.349 124.209,212.409 120.369 C 210.452 119.104,209.643 118.345,200.073 108.799 C 190.278 99.027,189.431 98.243,189.154 98.682 C 189.072 98.811,188.995 101.504,188.983 104.667 C 188.925 119.671,188.908 119.775,186.131 122.442 C 183.759 124.719,178.924 126.015,174.659 125.515 C 170.802 125.063,168.601 122.908,167.920 118.917 C 167.527 116.612,167.648 65.315,168.051 63.616 C 169.121 59.099,173.018 56.446,178.916 56.218 C 183.409 56.045,185.519 56.745,187.363 59.022 C 188.864 60.874,188.937 61.470,188.900 71.522 C 188.860 82.501,188.769 82.228,191.384 79.000 C 191.940 78.313,192.701 77.408,193.073 76.991 C 193.445 76.573,194.313 75.568,195.000 74.756 C 195.688 73.944,196.550 72.931,196.917 72.505 C 197.283 72.079,198.183 70.989,198.917 70.083 C 199.650 69.177,200.626 68.019,201.086 67.509 C 201.809 66.709,202.612 65.738,205.090 62.673 C 205.368 62.329,205.735 61.908,205.905 61.738 C 206.075 61.568,207.104 60.363,208.192 59.060 C 213.404 52.818,216.673 51.145,220.864 52.578 M155.417 57.838 C 154.225 57.903,152.392 58.079,151.344 58.228 C 150.296 58.378,148.977 58.500,148.414 58.500 C 147.850 58.500,145.895 58.685,144.070 58.911 C 142.244 59.137,139.512 59.399,138.000 59.494 C 136.487 59.588,134.350 59.816,133.250 59.999 C 132.150 60.183,130.977 60.333,130.644 60.333 C 129.986 60.333,127.476 61.015,126.462 61.469 C 124.256 62.456,122.435 64.911,121.659 67.948 C 120.997 70.534,121.208 123.856,121.887 125.789 C 123.199 129.523,127.614 131.178,133.833 130.266 C 134.704 130.138,136.092 129.986,136.917 129.927 C 137.742 129.869,139.092 129.751,139.917 129.666 C 140.742 129.581,143.067 129.357,145.083 129.169 C 147.100 128.980,149.800 128.715,151.083 128.579 C 152.367 128.444,153.858 128.333,154.398 128.333 C 156.613 128.333,160.274 127.527,162.000 126.659 C 164.809 125.247,166.413 120.134,165.350 115.985 C 163.881 110.250,161.385 109.552,148.083 111.155 C 146.527 111.342,144.809 111.377,144.424 111.230 C 143.488 110.871,143.055 105.649,143.766 103.295 C 143.915 102.804,145.373 102.559,150.500 102.164 C 156.300 101.716,156.941 101.589,159.427 100.385 C 162.368 98.961,163.417 96.801,163.417 92.167 C 163.416 88.826,163.082 87.575,161.834 86.250 C 161.489 85.883,161.022 85.386,160.797 85.145 C 159.874 84.155,156.683 83.865,151.644 84.314 C 145.029 84.904,143.901 84.938,143.699 84.560 C 143.586 84.349,143.565 83.041,143.638 80.762 L 143.750 77.285 144.193 76.955 C 144.657 76.608,144.501 76.627,152.750 75.926 C 161.399 75.191,163.536 74.001,165.241 68.969 C 165.926 66.949,165.933 66.368,165.315 63.250 C 164.861 60.959,164.767 60.773,163.526 59.719 C 161.469 57.975,159.843 57.598,155.417 57.838 M160.722 58.670 C 166.553 60.471,166.676 70.741,160.903 73.788 C 159.065 74.758,157.430 75.022,148.779 75.744 C 142.396 76.277,142.951 75.734,143.032 81.369 C 143.099 86.118,142.394 85.663,148.780 85.081 C 157.555 84.280,159.106 84.436,161.055 86.310 C 163.835 88.982,163.687 95.893,160.788 98.834 C 159.106 100.540,156.893 101.131,149.917 101.740 C 145.309 102.141,143.709 102.349,143.382 102.587 C 142.839 102.985,142.871 110.867,143.419 111.613 C 143.756 112.072,146.965 111.914,154.368 111.074 C 162.472 110.154,165.876 113.034,165.018 120.083 C 164.397 125.182,161.847 127.103,154.833 127.754 C 153.321 127.895,150.508 128.158,148.583 128.340 C 146.658 128.522,143.921 128.780,142.500 128.913 C 135.732 129.545,134.330 129.684,133.196 129.836 C 126.866 130.686,122.890 128.610,122.073 124.030 C 121.712 122.006,121.731 69.707,122.093 68.167 C 123.153 63.659,126.401 61.221,132.083 60.666 C 133.092 60.567,134.817 60.383,135.917 60.255 C 137.017 60.128,138.517 59.978,139.250 59.923 C 139.983 59.867,141.258 59.752,142.083 59.666 C 143.873 59.481,147.686 59.115,151.583 58.755 C 153.142 58.611,154.642 58.468,154.917 58.438 C 156.773 58.234,159.688 58.351,160.722 58.670 M360.250 60.841 C 345.260 62.856,340.568 67.323,342.932 77.331 C 345.896 89.884,355.611 96.703,367.167 94.341 C 375.494 92.639,380.911 85.269,381.835 74.385 C 382.599 65.389,379.750 61.979,370.667 61.014 C 368.369 60.770,361.612 60.658,360.250 60.841 M368.042 61.415 C 369.256 61.460,371.000 61.608,371.917 61.745 C 372.833 61.881,373.921 62.036,374.333 62.088 C 377.595 62.506,381.048 66.130,381.023 69.110 C 381.019 69.554,381.098 70.522,381.197 71.261 C 381.421 72.926,381.133 76.968,380.672 78.631 C 379.931 81.301,379.353 82.978,378.878 83.833 C 378.598 84.337,378.275 85.050,378.160 85.417 C 377.103 88.794,370.759 93.325,366.333 93.862 C 361.744 94.419,359.006 94.208,356.538 93.104 C 355.646 92.706,354.617 92.284,354.250 92.167 C 351.587 91.319,348.194 87.952,346.257 84.238 C 345.831 83.419,345.308 82.450,345.094 82.083 C 344.404 80.896,342.833 74.844,342.833 73.370 C 342.833 70.750,344.291 67.374,345.943 66.167 C 348.940 63.977,352.077 62.642,355.345 62.166 C 356.668 61.973,358.087 61.734,358.500 61.635 C 360.257 61.214,361.713 61.181,368.042 61.415 M107.417 62.438 C 106.133 62.560,104.446 62.739,103.667 62.836 C 102.888 62.932,101.500 63.080,100.583 63.165 C 99.667 63.249,97.942 63.433,96.750 63.573 C 95.558 63.714,93.346 63.907,91.833 64.004 C 90.321 64.100,88.599 64.255,88.006 64.348 C 87.414 64.441,86.026 64.582,84.921 64.660 C 79.589 65.038,76.040 68.565,75.565 73.959 C 75.154 78.632,75.231 126.910,75.652 128.541 C 76.514 131.875,77.606 133.203,80.333 134.237 C 82.170 134.933,82.613 134.994,84.667 134.839 C 85.721 134.760,87.708 134.610,89.083 134.505 C 90.458 134.401,93.233 134.135,95.250 133.913 C 97.267 133.692,100.042 133.431,101.417 133.333 C 102.792 133.236,104.517 133.087,105.250 133.003 C 105.983 132.919,107.558 132.764,108.750 132.659 C 114.753 132.129,116.278 131.555,117.843 129.235 C 119.380 126.957,120.168 122.440,119.429 120.139 C 117.893 115.356,115.727 114.344,108.425 114.998 C 100.042 115.749,98.436 115.817,97.924 115.443 C 97.645 115.239,97.617 114.922,97.607 111.895 C 97.592 107.090,97.428 107.295,101.608 106.912 C 107.629 106.360,110.983 105.835,113.339 105.074 C 114.110 104.826,116.059 103.047,116.494 102.196 C 119.021 97.249,117.270 89.598,113.440 88.848 C 110.745 88.321,109.509 88.284,106.583 88.640 C 100.914 89.330,98.529 89.437,98.112 89.019 C 97.366 88.275,97.523 81.725,98.293 81.420 C 98.836 81.205,103.792 80.518,105.524 80.418 C 107.100 80.327,109.186 80.077,111.974 79.648 C 114.989 79.183,117.233 77.867,118.248 75.971 C 119.421 73.777,119.377 73.938,119.535 71.191 C 119.725 67.896,119.581 66.947,118.710 65.771 C 118.362 65.301,117.872 64.599,117.622 64.212 C 116.447 62.393,113.412 61.865,107.417 62.438 M303.917 62.508 C 290.560 63.515,286.998 66.540,287.507 76.443 C 287.956 85.164,291.365 91.655,296.986 94.493 C 309.185 100.651,323.621 92.295,326.493 77.413 C 328.194 68.600,324.326 64.087,314.000 62.833 C 313.129 62.727,311.867 62.571,311.196 62.487 C 309.807 62.312,306.379 62.322,303.917 62.508 M115.163 63.179 C 120.066 64.892,120.603 74.060,116.006 77.563 C 114.257 78.896,112.731 79.217,104.417 80.000 C 98.791 80.530,97.702 80.685,97.421 80.995 C 97.089 81.362,96.992 88.862,97.312 89.460 C 97.592 89.983,100.827 89.876,106.619 89.152 C 108.668 88.896,112.170 89.035,113.214 89.413 C 118.527 91.338,118.463 101.975,113.124 104.470 C 111.254 105.344,109.021 105.729,102.333 106.333 C 97.818 106.741,97.536 106.789,97.329 107.175 C 97.144 107.520,97.077 115.424,97.255 115.876 C 97.487 116.467,97.495 116.467,106.750 115.656 C 113.396 115.074,115.571 115.341,117.111 116.927 C 120.101 120.010,119.739 127.071,116.442 129.957 C 114.587 131.581,113.122 131.845,99.083 133.093 C 95.417 133.419,90.992 133.830,89.250 134.008 C 80.207 134.928,76.737 133.313,75.977 127.831 C 75.652 125.485,75.889 73.222,76.229 72.083 C 77.162 68.970,79.331 66.786,82.614 65.656 C 83.483 65.357,87.740 64.836,93.417 64.333 C 94.333 64.252,96.621 64.034,98.500 63.850 C 100.379 63.665,102.779 63.431,103.833 63.328 C 104.888 63.226,106.725 63.041,107.917 62.916 C 110.980 62.596,113.786 62.698,115.163 63.179 M312.917 63.239 C 316.664 63.668,318.064 64.010,319.833 64.930 C 320.429 65.240,321.554 65.784,322.333 66.140 C 324.384 67.077,325.571 68.701,326.113 71.312 C 326.403 72.711,326.341 75.923,326.002 77.000 C 325.901 77.321,325.564 78.582,325.252 79.803 C 324.884 81.248,324.513 82.296,324.189 82.803 C 323.916 83.232,323.487 84.108,323.236 84.750 C 322.464 86.719,319.551 90.168,317.275 91.806 C 316.553 92.325,315.641 92.983,315.247 93.268 C 312.745 95.080,307.385 96.192,303.167 95.774 C 300.239 95.483,295.031 93.148,294.157 91.735 C 293.979 91.447,293.552 91.024,293.208 90.795 C 291.224 89.473,288.710 83.135,288.101 77.917 C 287.454 72.376,288.899 67.482,291.606 66.050 C 295.176 64.161,297.340 63.615,302.750 63.236 C 304.858 63.089,306.615 62.938,306.653 62.901 C 306.838 62.721,309.767 62.880,312.917 63.239 M45.316 66.406 C 45.275 66.447,44.126 66.602,42.762 66.751 C 37.232 67.357,35.997 67.630,32.583 68.999 C 31.850 69.293,30.909 69.670,30.491 69.837 C 28.189 70.758,23.161 74.002,20.927 76.008 C 20.463 76.425,19.821 76.977,19.500 77.235 C 17.192 79.091,13.190 84.500,11.662 87.828 C 11.051 89.160,10.341 90.662,10.084 91.167 C 9.372 92.568,8.686 94.729,8.339 96.667 C 8.167 97.629,7.906 98.904,7.760 99.500 C 6.208 105.833,7.629 116.276,10.924 122.750 C 13.346 127.508,15.044 129.620,18.833 132.585 C 19.521 133.122,20.435 133.849,20.866 134.200 C 22.037 135.154,27.066 137.598,29.219 138.259 C 34.609 139.914,44.250 140.128,50.875 138.740 C 51.494 138.611,52.880 138.350,53.955 138.160 C 55.030 137.970,56.243 137.668,56.651 137.487 C 57.059 137.307,58.711 136.747,60.322 136.244 C 61.932 135.741,63.565 135.124,63.951 134.873 C 66.214 133.400,68.662 131.612,69.175 131.057 C 71.583 128.453,73.006 125.916,73.319 123.667 C 73.662 121.208,73.494 99.158,73.124 98.069 C 72.545 96.361,71.115 94.442,69.955 93.815 L 68.917 93.253 66.083 93.197 C 64.206 93.159,62.463 93.230,60.917 93.407 C 57.932 93.750,54.357 94.102,51.500 94.334 C 44.743 94.885,41.230 97.089,40.247 101.393 C 39.133 106.268,40.425 110.943,43.264 112.310 C 45.305 113.292,45.804 113.383,48.694 113.300 C 51.926 113.206,52.075 113.264,51.967 114.567 C 51.795 116.635,50.077 118.389,47.167 119.466 C 44.825 120.333,39.009 119.828,36.333 118.525 C 31.318 116.085,28.070 109.828,28.574 103.583 C 28.626 102.942,28.709 101.790,28.759 101.024 C 28.815 100.164,29.000 99.232,29.244 98.584 C 29.461 98.008,29.755 97.080,29.898 96.522 C 30.041 95.964,30.334 95.224,30.549 94.879 C 30.764 94.533,31.106 93.912,31.309 93.500 C 32.014 92.069,34.488 89.459,35.479 89.100 C 36.054 88.893,36.503 88.589,36.788 88.216 C 39.086 85.203,52.531 85.097,58.226 88.047 C 59.209 88.556,60.072 88.714,63.142 88.946 C 65.496 89.123,68.595 87.710,69.729 85.940 C 70.031 85.469,70.409 84.975,70.570 84.843 C 72.431 83.309,73.835 77.463,72.820 75.473 C 71.916 73.702,70.488 72.074,69.333 71.498 C 68.921 71.293,68.246 70.886,67.833 70.595 C 65.429 68.896,61.298 67.240,58.667 66.921 C 58.163 66.860,57.160 66.703,56.440 66.572 C 55.210 66.348,45.518 66.204,45.316 66.406 M56.667 67.097 C 60.740 67.625,61.706 67.921,65.167 69.698 C 73.682 74.071,74.950 78.605,69.503 85.205 C 66.317 89.066,63.907 89.420,57.180 87.013 C 50.084 84.475,40.681 84.837,36.151 87.824 C 27.252 93.692,25.234 107.579,32.066 115.942 C 37.802 122.963,52.692 121.516,52.664 113.941 C 52.660 112.810,52.740 112.835,49.242 112.865 C 42.751 112.921,40.346 110.716,40.336 104.700 C 40.325 98.254,43.572 95.513,52.125 94.745 C 53.752 94.599,56.996 94.299,59.333 94.079 C 68.498 93.215,69.688 93.399,71.429 95.943 C 73.146 98.452,73.204 99.022,73.123 112.423 C 73.046 125.046,73.056 124.983,70.780 128.333 C 66.761 134.250,56.324 138.341,43.083 139.190 C 21.100 140.600,6.245 125.489,7.810 103.309 C 8.973 86.827,20.704 72.382,36.250 68.291 C 41.579 66.888,50.870 66.345,56.667 67.097 M332.930 67.896 C 331.004 68.329,330.462 69.504,331.112 71.839 C 331.445 73.037,331.316 73.971,330.427 76.791 C 327.594 85.787,324.097 91.118,318.241 95.369 C 316.221 96.835,311.795 98.493,308.763 98.919 C 306.025 99.303,306.149 99.044,306.727 103.199 C 306.960 104.877,307.270 107.263,307.416 108.500 C 308.320 116.198,309.343 118.344,312.750 119.699 C 314.872 120.543,319.335 120.511,321.662 119.635 C 322.473 119.330,344.445 113.884,348.500 112.983 C 349.738 112.708,351.387 112.341,352.167 112.169 C 358.878 110.680,362.301 109.864,363.112 109.559 C 365.506 108.660,367.141 104.645,367.040 99.918 C 366.977 96.975,367.175 97.158,364.252 97.354 C 353.555 98.072,345.135 92.265,340.417 80.917 C 338.582 76.502,337.843 73.328,338.257 71.638 C 339.039 68.448,336.960 66.989,332.930 67.896 M336.865 68.600 C 337.738 69.051,337.908 69.676,337.662 71.534 C 337.294 74.312,339.300 81.308,341.189 83.833 C 341.428 84.154,341.755 84.829,341.913 85.333 C 342.420 86.940,343.460 88.267,346.833 91.608 C 351.686 96.414,355.956 98.016,363.517 97.869 C 366.520 97.811,366.393 97.711,366.407 100.138 C 366.427 103.713,365.703 106.204,364.151 107.902 C 363.007 109.153,362.834 109.215,356.500 110.601 C 355.813 110.751,354.744 111.017,354.126 111.191 C 353.508 111.366,352.494 111.573,351.871 111.651 C 351.249 111.729,350.030 111.985,349.162 112.221 C 348.294 112.456,346.758 112.837,345.750 113.068 C 343.546 113.572,336.676 115.218,334.583 115.743 C 333.758 115.950,331.133 116.613,328.750 117.216 C 326.367 117.819,323.892 118.422,323.250 118.555 C 322.608 118.689,321.780 118.913,321.409 119.053 C 318.217 120.260,313.199 119.773,311.127 118.055 C 309.710 116.880,308.591 113.834,308.106 109.833 C 307.956 108.596,307.719 106.641,307.580 105.490 C 307.440 104.339,307.253 102.952,307.164 102.407 C 306.784 100.089,306.943 99.809,308.820 99.499 C 313.800 98.674,317.574 96.982,320.491 94.269 C 321.367 93.454,322.479 92.444,322.962 92.025 C 325.828 89.541,328.782 83.932,331.074 76.625 C 332.018 73.616,332.114 72.732,331.647 71.308 C 331.300 70.249,331.287 70.098,331.509 69.703 C 332.239 68.401,335.272 67.776,336.865 68.600 " stroke="none" fill="#cafbfb" fill-rule="evenodd"></path></g></svg>